<?xml version="1.0" standalone="no"?>
<!DOCTYPE svg PUBLIC "-//W3C//DTD SVG 1.1//EN" "http://www.w3.org/Graphics/SVG/1.1/DTD/svg11.dtd" >
<svg>
<metadata>
Created by FontForge 20090914 at Fri Feb 24 06:44:05 2012
 By root
Copyright (c) 1990 Adobe Systems Incorporated.  All Rights Reserved.
</metadata>
<defs>
<font id="Serpentine-Light" horiz-adv-x="593" >
  <font-face 
    font-family="Serpentine-Light"
    font-weight="200"
    font-stretch="normal"
    units-per-em="1000"
    panose-1="2 0 3 3 0 0 0 0 0 0"
    ascent="800"
    descent="-200"
    x-height="470"
    cap-height="640"
    bbox="-196 -210 1091 877"
    underline-thickness="50"
    underline-position="-75"
    unicode-range="U+000D-U+FB02"
  />
<missing-glyph horiz-adv-x="782" 
d="M48 0v782h686v-782h-686zM686 48v686h-590v-686h590z" />
    <glyph glyph-name=".notdef" unicode="&#xf8ff;" horiz-adv-x="782" 
d="M48 0v782h686v-782h-686zM686 48v686h-590v-686h590z" />
    <glyph glyph-name=".notdef" unicode="&#xe01e;" horiz-adv-x="782" 
d="M48 0v782h686v-782h-686zM686 48v686h-590v-686h590z" />
    <glyph glyph-name=".notdef" unicode="&#x25ca;" horiz-adv-x="782" 
d="M48 0v782h686v-782h-686zM686 48v686h-590v-686h590z" />
    <glyph glyph-name=".notdef" unicode="&#x394;" horiz-adv-x="782" 
d="M48 0v782h686v-782h-686zM686 48v686h-590v-686h590z" />
    <glyph glyph-name=".notdef" unicode="&#x2248;" horiz-adv-x="782" 
d="M48 0v782h686v-782h-686zM686 48v686h-590v-686h590z" />
    <glyph glyph-name=".notdef" unicode="&#x221a;" horiz-adv-x="782" 
d="M48 0v782h686v-782h-686zM686 48v686h-590v-686h590z" />
    <glyph glyph-name=".notdef" unicode="&#x3a9;" horiz-adv-x="782" 
d="M48 0v782h686v-782h-686zM686 48v686h-590v-686h590z" />
    <glyph glyph-name=".notdef" unicode="&#x222b;" horiz-adv-x="782" 
d="M48 0v782h686v-782h-686zM686 48v686h-590v-686h590z" />
    <glyph glyph-name=".notdef" unicode="&#x3c0;" horiz-adv-x="782" 
d="M48 0v782h686v-782h-686zM686 48v686h-590v-686h590z" />
    <glyph glyph-name=".notdef" unicode="&#x220f;" horiz-adv-x="782" 
d="M48 0v782h686v-782h-686zM686 48v686h-590v-686h590z" />
    <glyph glyph-name=".notdef" unicode="&#x2211;" horiz-adv-x="782" 
d="M48 0v782h686v-782h-686zM686 48v686h-590v-686h590z" />
    <glyph glyph-name=".notdef" unicode="&#x2202;" horiz-adv-x="782" 
d="M48 0v782h686v-782h-686zM686 48v686h-590v-686h590z" />
    <glyph glyph-name=".notdef" unicode="&#x2265;" horiz-adv-x="782" 
d="M48 0v782h686v-782h-686zM686 48v686h-590v-686h590z" />
    <glyph glyph-name=".notdef" unicode="&#x2264;" horiz-adv-x="782" 
d="M48 0v782h686v-782h-686zM686 48v686h-590v-686h590z" />
    <glyph glyph-name=".notdef" unicode="&#x221e;" horiz-adv-x="782" 
d="M48 0v782h686v-782h-686zM686 48v686h-590v-686h590z" />
    <glyph glyph-name=".notdef" unicode="&#x2260;" horiz-adv-x="782" 
d="M48 0v782h686v-782h-686zM686 48v686h-590v-686h590z" />
    <glyph glyph-name=".notdef" horiz-adv-x="782" 
d="M48 0v782h686v-782h-686zM686 48v686h-590v-686h590z" />
    <glyph glyph-name=".notdef" horiz-adv-x="782" 
d="M48 0v782h686v-782h-686zM686 48v686h-590v-686h590z" />
    <glyph glyph-name=".notdef" horiz-adv-x="782" 
d="M48 0v782h686v-782h-686zM686 48v686h-590v-686h590z" />
    <glyph glyph-name=".notdef" horiz-adv-x="782" 
d="M48 0v782h686v-782h-686zM686 48v686h-590v-686h590z" />
    <glyph glyph-name=".notdef" horiz-adv-x="782" 
d="M48 0v782h686v-782h-686zM686 48v686h-590v-686h590z" />
    <glyph glyph-name=".notdef" horiz-adv-x="782" 
d="M48 0v782h686v-782h-686zM686 48v686h-590v-686h590z" />
    <glyph glyph-name=".notdef" horiz-adv-x="782" 
d="M48 0v782h686v-782h-686zM686 48v686h-590v-686h590z" />
    <glyph glyph-name=".notdef" horiz-adv-x="782" 
d="M48 0v782h686v-782h-686zM686 48v686h-590v-686h590z" />
    <glyph glyph-name=".notdef" horiz-adv-x="782" 
d="M48 0v782h686v-782h-686zM686 48v686h-590v-686h590z" />
    <glyph glyph-name=".notdef" horiz-adv-x="782" 
d="M48 0v782h686v-782h-686zM686 48v686h-590v-686h590z" />
    <glyph glyph-name=".notdef" horiz-adv-x="782" 
d="M48 0v782h686v-782h-686zM686 48v686h-590v-686h590z" />
    <glyph glyph-name=".notdef" horiz-adv-x="782" 
d="M48 0v782h686v-782h-686zM686 48v686h-590v-686h590z" />
    <glyph glyph-name=".notdef" horiz-adv-x="782" 
d="M48 0v782h686v-782h-686zM686 48v686h-590v-686h590z" />
    <glyph glyph-name=".notdef" horiz-adv-x="782" 
d="M48 0v782h686v-782h-686zM686 48v686h-590v-686h590z" />
    <glyph glyph-name=".notdef" horiz-adv-x="782" 
d="M48 0v782h686v-782h-686zM686 48v686h-590v-686h590z" />
    <glyph glyph-name=".notdef" horiz-adv-x="782" 
d="M48 0v782h686v-782h-686zM686 48v686h-590v-686h590z" />
    <glyph glyph-name=".notdef" horiz-adv-x="782" 
d="M48 0v782h686v-782h-686zM686 48v686h-590v-686h590z" />
    <glyph glyph-name=".notdef" horiz-adv-x="782" 
d="M48 0v782h686v-782h-686zM686 48v686h-590v-686h590z" />
    <glyph glyph-name=".notdef" horiz-adv-x="782" 
d="M48 0v782h686v-782h-686zM686 48v686h-590v-686h590z" />
    <glyph glyph-name=".notdef" horiz-adv-x="782" 
d="M48 0v782h686v-782h-686zM686 48v686h-590v-686h590z" />
    <glyph glyph-name=".notdef" unicode="&#xa;" horiz-adv-x="782" 
d="M48 0v782h686v-782h-686zM686 48v686h-590v-686h590z" />
    <glyph glyph-name=".notdef" horiz-adv-x="782" 
d="M48 0v782h686v-782h-686zM686 48v686h-590v-686h590z" />
    <glyph glyph-name=".notdef" horiz-adv-x="782" 
d="M48 0v782h686v-782h-686zM686 48v686h-590v-686h590z" />
    <glyph glyph-name=".notdef" horiz-adv-x="782" 
d="M48 0v782h686v-782h-686zM686 48v686h-590v-686h590z" />
    <glyph glyph-name=".notdef" horiz-adv-x="782" 
d="M48 0v782h686v-782h-686zM686 48v686h-590v-686h590z" />
    <glyph glyph-name=".notdef" horiz-adv-x="782" 
d="M48 0v782h686v-782h-686zM686 48v686h-590v-686h590z" />
    <glyph glyph-name=".notdef" horiz-adv-x="782" 
d="M48 0v782h686v-782h-686zM686 48v686h-590v-686h590z" />
    <glyph glyph-name=".notdef" horiz-adv-x="782" 
d="M48 0v782h686v-782h-686zM686 48v686h-590v-686h590z" />
    <glyph glyph-name="uni001D" horiz-adv-x="0" 
 />
    <glyph glyph-name="uni001D" horiz-adv-x="0" 
 />
    <glyph glyph-name="uni001D" horiz-adv-x="0" 
 />
    <glyph glyph-name="uni000D" unicode="&#xd;" horiz-adv-x="333" 
 />
    <glyph glyph-name="space" unicode=" " horiz-adv-x="333" 
 />
    <glyph glyph-name="space" unicode="&#x9;" horiz-adv-x="333" 
 />
    <glyph glyph-name="exclam" unicode="!" horiz-adv-x="222" 
d="M162 0h-102v86h102v-86zM162 640v-347q0 -58 -12 -169h-78q-5 44 -8.5 84t-3.5 85v347h102z" />
    <glyph glyph-name="quotedbl" unicode="&#x22;" horiz-adv-x="333" 
d="M197 640h84v-272h-84v272zM52 640h84v-272h-84v272z" />
    <glyph glyph-name="numbersign" unicode="#" horiz-adv-x="667" 
d="M532 197h-92l-27 -197h-66l28 197h-109l-28 -197h-65l27 197h-91v56h99l19 134h-92v56h100l26 197h67l-27 -197h108l27 197h67l-28 -197h83v-56h-91l-18 -134h83v-56zM292 387l-18 -134h109l18 134h-109z" />
    <glyph glyph-name="dollar" unicode="$" 
d="M271 294h-111q-69 0 -95.5 25.5t-26.5 96.5v50q0 69 26.5 95.5t95.5 26.5h111v97h50v-97h223l3 -57q-30 5 -66 8t-59 3h-101v-158h112q69 0 95.5 -25.5t26.5 -96.5v-75q0 -69 -26.5 -95.5t-95.5 -26.5h-112v-103h-50v103h-226l-7 57q30 -5 66 -8t59 -3h108v183zM271 542
h-100q-26 0 -34.5 -10.5t-8.5 -41.5v-54q0 -32 8 -42t35 -10h100v158zM321 111h101q26 0 34.5 10.5t8.5 41.5v79q0 32 -8 42t-35 10h-101v-183z" />
    <glyph glyph-name="percent" unicode="%" horiz-adv-x="870" 
d="M124 374q0 -21 20 -21h132q11 0 15.5 4.5t4.5 16.5v203q0 21 -20 21h-132q-11 0 -15.5 -4.5t-4.5 -16.5v-203zM48 571q0 40 15.5 54.5t59.5 14.5h174q44 0 59.5 -14.5t15.5 -54.5v-192q0 -40 -15 -54t-60 -14h-174q-43 0 -59 14t-16 54v192zM574 63q0 -21 20 -21h132
q11 0 15.5 4.5t4.5 16.5v203q0 21 -20 21h-132q-11 0 -15.5 -4.5t-4.5 -16.5v-203zM498 260q0 40 15.5 54.5t59.5 14.5h174q44 0 59.5 -14.5t15.5 -54.5v-192q0 -40 -15 -54t-60 -14h-174q-43 0 -59 14t-16 54v192zM213 0l394 640h58l-394 -640h-58z" />
    <glyph glyph-name="ampersand" unicode="&#x26;" horiz-adv-x="667" 
d="M53 330q0 45 18.5 61t58.5 16h84q-53 63 -82 105.5t-29 68.5q0 39 29.5 49t94.5 10h327l9 -63q-30 5 -66 8t-59 3h-132h-63q-26 -2 -26 -18q0 -11 29.5 -51l107.5 -142l116 -155l67 91q7 10 9.5 21.5t2.5 30.5v40h48v-67q0 -18 -2.5 -28.5t-10.5 -21.5l-82 -107l67 -88
q20 -27 31 -37t25 -10q10 0 18 2t17 5l-5 -53h-95q-27 0 -38.5 5t-27.5 27l-51 68l-55 -82q-12 -18 -72 -18h-156q-56 0 -81.5 31t-25.5 91v208zM250 355h-52q-26 0 -34.5 -10.5t-8.5 -41.5v-199q0 -32 8 -42t35 -10h114q23 0 34 7t30 33l36 49z" />
    <glyph glyph-name="quotesingle" unicode="'" horiz-adv-x="222" 
d="M69 640h84v-271h-84v271z" />
    <glyph glyph-name="parenleft" unicode="(" horiz-adv-x="315" 
d="M84 518q0 69 26.5 95.5t95.5 26.5h79v-52h-74q-26 0 -34.5 -10.5t-8.5 -41.5v-536q0 -32 8 -42t35 -10h72v-52h-77q-69 0 -95.5 25.5t-26.5 96.5v500z" />
    <glyph glyph-name="parenright" unicode=")" horiz-adv-x="315" 
d="M231 18q0 -69 -26.5 -95.5t-95.5 -26.5h-79v52h74q26 0 34.5 10.5t8.5 41.5v536q0 32 -8 42t-35 10h-72v52h77q69 0 95.5 -25.5t26.5 -96.5v-500z" />
    <glyph glyph-name="asterisk" unicode="*" horiz-adv-x="611" 
d="M442 360l-120 88l17 -155h-62l15 155l-117 -96l-33 56l136 62l-139 59l33 52l117 -88l-12 147h57l-12 -148l120 87l29 -50l-133 -59l135 -59z" />
    <glyph glyph-name="plus" unicode="+" horiz-adv-x="600" 
d="M262 470h76v-197h197v-76h-197v-197h-76v197h-197v76h197v197z" />
    <glyph glyph-name="comma" unicode="," horiz-adv-x="333" 
d="M217 5l-53 -55h-44l33 50h-38v86h102v-81z" />
    <glyph glyph-name="hyphen" unicode="-" horiz-adv-x="333" 
d="M296 270v-70h-259v70h259z" />
    <glyph glyph-name="period" unicode="." horiz-adv-x="333" 
d="M217 0h-102v86h102v-86z" />
    <glyph glyph-name="slash" unicode="/" horiz-adv-x="278" 
d="M-50 0l301 640h77l-301 -640h-77z" />
    <glyph glyph-name="zero" unicode="0" horiz-adv-x="667" 
d="M42 518q0 69 26.5 95.5t95.5 26.5h339q69 0 95.5 -25.5t26.5 -96.5v-396q0 -69 -26.5 -95.5t-95.5 -26.5h-339q-69 0 -95.5 25.5t-26.5 96.5v396zM523 536q0 32 -8 42t-35 10h-293q-26 0 -34.5 -10.5t-8.5 -41.5v-432q0 -32 8 -42t35 -10h293q26 0 34.5 10.5t8.5 41.5
v432z" />
    <glyph glyph-name="one" unicode="1" horiz-adv-x="315" 
d="M218 640v-500q0 -33 3.5 -68.5t12.5 -71.5h-134q9 36 12.5 71.5t3.5 68.5v396h-67v46l120 58h49z" />
    <glyph glyph-name="two" unicode="2" horiz-adv-x="648" 
d="M48 0v262q0 35 21 50.5t68 28.5l360 96q19 5 19 45v54q0 32 -8 42t-35 10h-298q-53 0 -78 -1.5t-47 -5.5l8 59h438q69 0 95.5 -25.5t26.5 -96.5v-48q0 -62 -12 -83.5t-59 -34.5l-360 -99q-21 -6 -29 -13t-8 -22v-166h341q53 0 78 1.5t47 5.5l-8 -59h-560z" />
    <glyph glyph-name="three" unicode="3" horiz-adv-x="611" 
d="M15 59q7 -1 39 -4t86 -3h288q26 0 34.5 10.5t8.5 41.5v146q0 32 -8 42t-35 10h-134q-53 0 -78 -1.5t-47 -5.5v66q7 -1 39 -4t86 -3h134q26 0 34.5 10.5t8.5 41.5v130q0 32 -8 42t-35 10h-286q-53 0 -78 -1.5t-47 -5.5l8 59h426q69 0 95.5 -25.5t26.5 -96.5v-106
q0 -47 -16.5 -60t-66.5 -21q58 -7 70.5 -28t12.5 -85v-96q0 -69 -26.5 -95.5t-95.5 -26.5h-428z" />
    <glyph glyph-name="four" unicode="4" horiz-adv-x="667" 
d="M-4 280l454 360h109v-370h94v-74h-94v-88q0 -32 3 -57t12 -51h-126q15 46 15 108v88h-467v84zM463 588l-397 -316l397 -2v318z" />
    <glyph glyph-name="five" unicode="5" horiz-adv-x="648" 
d="M596 640l8 -59q-7 1 -39 4t-86 3h-342v-192h348q69 0 95.5 -25.5t26.5 -96.5v-152q0 -69 -26.5 -95.5t-95.5 -26.5h-446l-8 59q7 -1 39 -4t86 -3h306q26 0 34.5 10.5t8.5 41.5v188q0 32 -8 42t-35 10h-296q-53 0 -78 -1.5t-47 -5.5v303h555z" />
    <glyph glyph-name="six" unicode="6" horiz-adv-x="667" 
d="M520 297q0 32 -8 42t-35 10h-288q-26 0 -34.5 -10.5t-8.5 -41.5v-193q0 -32 8 -42t35 -10h288q26 0 34.5 10.5t8.5 41.5v193zM189 588q-26 0 -34.5 -10.5t-8.5 -41.5v-171q11 21 20 28.5t29 7.5h305q69 0 95.5 -25.5t26.5 -96.5v-157q0 -72 -20.5 -97t-83.5 -25h-352
q-69 0 -95.5 25.5t-26.5 96.5v432q0 53 22 69.5t74 16.5h473l8 -59q-7 1 -39 4t-86 3h-307z" />
    <glyph glyph-name="seven" unicode="7" 
d="M582 640l6 -49q-55 -48 -133.5 -139.5t-149 -210t-98.5 -241.5h-110q18 70 64 164.5t125.5 202.5t199.5 221h-346q-53 0 -78 -1.5t-47 -5.5l8 59h559z" />
    <glyph glyph-name="eight" unicode="8" horiz-adv-x="667" 
d="M520 536q0 32 -8 42t-35 10h-288q-26 0 -34.5 -10.5t-8.5 -41.5v-114q0 -32 8 -42t35 -10h288q26 0 34.5 10.5t8.5 40.5v115zM166 0q-69 0 -95.5 25.5t-26.5 96.5v140q0 44 15 63t67 19v3q-54 8 -68 24t-14 57v90q0 69 26.5 95.5t95.5 26.5h334q69 0 95.5 -25.5
t26.5 -96.5v-90q0 -55 -13.5 -68.5t-61.5 -13.5q42 -6 58.5 -21.5t16.5 -48.5v-154q0 -69 -26.5 -95.5t-95.5 -26.5h-334zM189 318q-26 0 -34.5 -10.5t-8.5 -41.5v-162q0 -32 8 -42t35 -10h288q26 0 34.5 10.5t8.5 41.5v162q0 32 -8 42t-35 10h-288z" />
    <glyph glyph-name="nine" unicode="9" horiz-adv-x="667" 
d="M143 343q0 -32 8 -42t35 -10h295q26 0 34.5 10.5t8.5 41.5v193q0 32 -8 42t-35 10h-295q-26 0 -34.5 -10.5t-8.5 -41.5v-193zM481 52q26 0 34.5 10.5t8.5 41.5v176q-11 -24 -22 -32.5t-27 -8.5h-312q-69 0 -95.5 25.5t-26.5 96.5v157q0 72 20.5 97t83.5 25h359
q69 0 95.5 -25.5t26.5 -96.5v-432q0 -53 -22 -69.5t-74 -16.5h-480l-8 59q7 -1 39 -4t86 -3h314z" />
    <glyph glyph-name="colon" unicode=":" horiz-adv-x="333" 
d="M217 206h-102v86h102v-86zM217 0h-102v86h102v-86z" />
    <glyph glyph-name="semicolon" unicode=";" horiz-adv-x="333" 
d="M217 5l-53 -55h-44l33 50h-38v86h102v-81zM115 206v86h102v-86h-102z" />
    <glyph glyph-name="less" unicode="&#x3c;" horiz-adv-x="600" 
d="M535 -7l-470 209v66l470 209v-76l-374 -166l374 -166v-76z" />
    <glyph glyph-name="equal" unicode="=" horiz-adv-x="600" 
d="M535 294h-470v76h470v-76zM535 100h-470v76h470v-76z" />
    <glyph glyph-name="greater" unicode="&#x3e;" horiz-adv-x="600" 
d="M438 235l-373 166v76l470 -209v-66l-470 -209v76z" />
    <glyph glyph-name="question" unicode="?" 
d="M438 640q69 0 95.5 -25.5t26.5 -96.5v-111q0 -52 -20.5 -72.5t-59.5 -20.5h-140q-26 0 -34.5 -10.5t-8.5 -41.5v-137h-102v178q0 31 17 44t60 13h143q26 0 34.5 10.5t8.5 41.5v130q0 32 -8 42t-35 10h-281q-37 0 -66 -3t-59 -8l5 57h424zM297 0h-102v86h102v-86z" />
    <glyph glyph-name="at" unicode="@" horiz-adv-x="800" 
d="M487 353q0 33 -20.5 56.5t-48.5 23.5q-51 0 -86.5 -50t-35.5 -106q0 -36 19.5 -58.5t50.5 -22.5q50 0 85.5 51.5t35.5 105.5zM529 485h62l-64 -232q-2 -6 -5 -20.5t-3 -21.5q0 -20 17 -20q43 0 79.5 53.5t36.5 121.5q0 99 -68.5 158.5t-168.5 59.5q-111 0 -182.5 -76.5
t-71.5 -190.5q0 -113 75 -187t187 -74q57 0 110 24t89 65h62q-43 -68 -112.5 -106.5t-152.5 -38.5q-137 0 -231.5 92.5t-94.5 228.5q0 133 95 226t227 93q120 0 207.5 -74.5t87.5 -188.5q0 -109 -71 -178t-136 -69q-23 0 -37.5 13t-14.5 38q-21 -21 -48 -36t-53 -15
q-55 0 -92.5 40.5t-37.5 99.5q0 88 55 158.5t139 70.5q33 0 58 -15.5t41 -48.5z" />
    <glyph glyph-name="A" unicode="A" horiz-adv-x="685" 
d="M568 0q-2 25 -9.5 45.5t-25.5 58.5l-44 92h-342l-52 -108q-18 -38 -23 -54.5t-5 -33.5h-84q25 29 45 69l255 531q-7 13 -13 20t-20 20h129l257 -525q20 -42 35 -69t31 -46h-134zM316 552l-146 -304h295z" />
    <glyph glyph-name="B" unicode="B" horiz-adv-x="667" 
d="M53 540q0 36 -2 57.5t-8 42.5h441q80 0 110.5 -25.5t30.5 -98.5v-104q0 -49 -20 -67t-67 -18q48 -2 67.5 -19.5t19.5 -67.5v-116q0 -73 -30.5 -98.5t-110.5 -25.5h-441q6 20 8 42t2 58v440zM155 52h325q26 0 34.5 10.5t8.5 41.5v154q0 32 -8 42t-35 10h-325v-258z
M155 356h325q26 0 34.5 10.5t8.5 41.5v128q0 32 -8 42t-35 10h-325v-232z" />
    <glyph glyph-name="C" unicode="C" horiz-adv-x="556" 
d="M527 640l6 -64q-22 8 -58 10t-98 2h-190q-26 0 -34.5 -10.5t-8.5 -41.5v-432q0 -32 8 -42t35 -10h190h28q91 0 137 12l-6 -64h-353q-80 0 -110.5 25.5t-30.5 98.5v392q0 73 30.5 98.5t110.5 25.5h344z" />
    <glyph glyph-name="D" unicode="D" horiz-adv-x="667" 
d="M155 52h325q26 0 34.5 10.5t8.5 41.5v432q0 32 -8 42t-35 10h-325v-536zM53 540q0 64 -9 100h440q80 0 110.5 -25.5t30.5 -98.5v-392q0 -73 -30.5 -98.5t-110.5 -25.5h-440q9 36 9 100v440z" />
    <glyph glyph-name="E" unicode="E" horiz-adv-x="556" 
d="M536 640l5 -59q-7 1 -39 4t-86 3h-261v-242h237q53 0 76 1.5t55 5.5v-66q-7 1 -43 4t-88 3h-237v-242h261q53 0 78 1.5t47 5.5l-5 -59h-492q9 36 9 100v440q0 64 -9 100h492z" />
    <glyph glyph-name="F" unicode="F" horiz-adv-x="537" 
d="M546 640l8 -59q-7 1 -39 4t-86 3h-274v-242h229q53 0 76 1.5t55 5.5v-66q-7 1 -43 4t-88 3h-229v-194q0 -64 9 -100h-120q9 36 9 100v440q0 64 -9 100h502z" />
    <glyph glyph-name="G" unicode="G" horiz-adv-x="667" 
d="M144 104q0 -32 8 -42t35 -10h285q26 0 34.5 10.5t8.5 41.5v226h-165q-37 0 -81 -0.5t-69 -11.5v64h424q-4 -42 -5.5 -65t-1.5 -35v-182q0 -61 7 -100h-91l-10 42q-6 -27 -19 -34.5t-60 -7.5h-269q-79 0 -106 23t-27 89v416q0 65 26.5 88.5t106.5 23.5h420l5 -60
q-22 8 -55.5 11t-74.5 3h-283q-26 0 -34.5 -10.5t-8.5 -41.5v-438z" />
    <glyph glyph-name="H" unicode="H" horiz-adv-x="685" 
d="M155 300v-200q0 -64 9 -100h-120q9 36 9 100v440q0 64 -9 100h120q-9 -36 -9 -100v-188h375v188q0 64 -9 100h120q-9 -36 -9 -100v-440q0 -64 9 -100h-120q9 36 9 100v200h-375z" />
    <glyph glyph-name="I" unicode="I" horiz-adv-x="241" 
d="M172 100q0 -64 9 -100h-120q9 36 9 100v440q0 64 -9 100h120q-9 -36 -9 -100v-440z" />
    <glyph glyph-name="J" unicode="J" horiz-adv-x="574" 
d="M374 52q27 0 35.5 13t8.5 61v414q0 64 -9 100h120q-9 -36 -9 -100v-401q0 -87 -30 -113.5t-134 -26.5l-344 1l-10 67q37 -11 62 -13t96 -2h214z" />
    <glyph glyph-name="K" unicode="K" horiz-adv-x="630" 
d="M619 640l-84 -72l-167 -157l284 -411h-128l-228 343l-141 -138v-105q0 -64 9 -100h-120q9 36 9 100v440q0 64 -9 100h120q-9 -36 -9 -100v-265l311 297l29 30.5t28 37.5h96z" />
    <glyph glyph-name="L" unicode="L" horiz-adv-x="574" 
d="M51 0q9 36 9 100v440q0 64 -9 100h120q-9 -36 -9 -100v-488h285q53 0 78 1.5t47 5.5l-6 -59h-515z" />
    <glyph glyph-name="M" unicode="M" horiz-adv-x="870" 
d="M42 0q7 23 9.5 67t2.5 111v312q0 103 -10 150h142l254 -568l250 568h139q-6 -31 -8.5 -60.5t-2.5 -60.5v-15v-404q0 -64 9 -100h-120q9 36 9 100v470l-254 -570h-98l-256 570l-2 -478q0 -29 1.5 -49t6.5 -43h-72z" />
    <glyph glyph-name="N" unicode="N" horiz-adv-x="685" 
d="M503 0l-396 568l-2 -460q0 -33 1.5 -51.5t7.5 -56.5h-73q7 23 9.5 67t2.5 111v312q0 103 -10 150h131l403 -574l3 466q0 33 -1.5 51.5t-7.5 56.5h72q-6 -31 -8.5 -60.5t-2.5 -60.5v-15v-504h-129z" />
    <glyph glyph-name="O" unicode="O" horiz-adv-x="667" 
d="M492 640q73 0 103 -31.5t30 -90.5v-396q0 -59 -30 -90.5t-103 -31.5h-317q-73 0 -103 31.5t-30 90.5v396q0 59 30 90.5t103 31.5h317zM523 536q0 32 -8 42t-35 10h-293q-26 0 -34.5 -10.5t-8.5 -41.5v-432q0 -32 8 -42t35 -10h293q26 0 34.5 10.5t8.5 41.5v432z" />
    <glyph glyph-name="P" unicode="P" horiz-adv-x="648" 
d="M633 364q0 -73 -30.5 -98.5t-110.5 -25.5h-337v-140q0 -64 9 -100h-120q9 36 9 100v440q0 64 -9 100h448q80 0 110.5 -25.5t30.5 -98.5v-152zM488 292q26 0 34.5 10.5t8.5 41.5v192q0 32 -8 42t-35 10h-333v-296h333z" />
    <glyph glyph-name="Q" unicode="Q" horiz-adv-x="667" 
d="M175 0q-73 0 -103 31.5t-30 90.5v396q0 59 30 90.5t103 31.5h317q73 0 103 -31.5t30 -90.5v-396q0 -59 -30 -90.5t-103 -31.5h-52l45 -78h-61l-44 78h-205zM349 52l-56 92h63l53 -92h71q26 0 34.5 10.5t8.5 41.5v432q0 32 -8 42t-35 10h-293q-26 0 -34.5 -10.5
t-8.5 -41.5v-432q0 -32 8 -42t35 -10h162z" />
    <glyph glyph-name="R" unicode="R" horiz-adv-x="667" 
d="M155 292v-192q0 -64 9 -100h-120q9 36 9 100v440q0 64 -9 100h443q80 0 110.5 -25.5t30.5 -98.5v-101q0 -72 -27 -98t-92 -26q53 -121 83.5 -184.5t62.5 -106.5h-118l-136 292h-246zM155 344h328q26 0 34.5 10.5t8.5 41.5v140q0 32 -8 42t-35 10h-328v-244z" />
    <glyph glyph-name="S" unicode="S" horiz-adv-x="630" 
d="M568 640l8 -59q-7 1 -39 4t-86 3h-266q-26 0 -34.5 -10.5t-8.5 -41.5v-107q0 -32 8 -42t35 -10h264q80 0 110.5 -25.5t30.5 -98.5v-129q0 -73 -30.5 -98.5t-110.5 -25.5h-396l-8 59q7 -1 39 -4t86 -3h275q26 0 34.5 10.5t8.5 41.5v125q0 32 -8 42t-35 10h-264
q-80 0 -110.5 25.5t-30.5 98.5v111q0 73 30.5 98.5t110.5 25.5h387z" />
    <glyph glyph-name="T" unicode="T" horiz-adv-x="537" 
d="M120 588q-34 0 -64.5 -2.5t-54.5 -7.5l10 62h516l10 -62q-21 4 -51.5 7t-67.5 3h-98v-488q0 -64 9 -100h-120q9 36 9 100v488h-98z" />
    <glyph glyph-name="U" unicode="U" horiz-adv-x="667" 
d="M518 52q27 0 35.5 10.5t8.5 41.5v428q0 33 -1.5 51.5t-7.5 56.5h72q-6 -31 -8.5 -60.5t-2.5 -60.5v-15v-381q0 -72 -23 -97.5t-87 -25.5h-320q-75 0 -103 26t-28 97v417q0 64 -9 100h120q-9 -36 -9 -100v-436q0 -33 7 -42.5t32 -9.5h324z" />
    <glyph glyph-name="V" unicode="V" horiz-adv-x="611" 
d="M247 0l-192 498q-18 47 -30 75t-35 67h135q0 -18 3 -33t10 -33l198 -522l191 510q16 42 16 78h78l-22.5 -39.5t-15.5 -33.5l-212 -567h-124z" />
    <glyph glyph-name="W" unicode="W" horiz-adv-x="889" 
d="M175 0l-137 507q-10 37 -17.5 59.5t-26.5 73.5h129l-3 -23.5t-1 -14.5q0 -13 4 -33t9 -39l124 -474l148 584h125l154 -584l122 488q5 21 7 44.5t2 51.5h81q-14 -21 -24 -51t-19 -66l-131 -523h-119l-158 588l-148 -588h-121z" />
    <glyph glyph-name="X" unicode="X" 
d="M608 640l-45 -43t-38 -42l-179 -211l172 -233l49 -64t41 -47h-146q-6 13 -17 33.5t-27 42.5l-137 191l-131 -153q-26 -30 -44 -57.5t-32 -56.5h-89l69 75l196 235l-184 255l-59 75h141q12 -38 40 -76l128 -176l152 180q19 22 27.5 35.5t17.5 36.5h95z" />
    <glyph glyph-name="Y" unicode="Y" 
d="M502 593q6 10 12 25t8 22h88q-24 -24 -40 -45t-46 -65l-176 -264v-166q0 -64 9 -100h-120q9 36 9 100v165l-141 203l-59 84t-63 88h145q7 -30 14.5 -46.5t34.5 -55.5l148 -214z" />
    <glyph glyph-name="Z" unicode="Z" 
d="M171 52h277q53 0 78 1.5t47 5.5l-8 -59h-548l423 588h-260q-53 0 -78 -1.5t-47 -5.5l8 59h532z" />
    <glyph glyph-name="bracketleft" unicode="[" horiz-adv-x="296" 
d="M169 -58h87v-46h-171v744h171v-46h-87v-652z" />
    <glyph glyph-name="backslash" unicode="\" horiz-adv-x="278" 
d="M328 0h-77l-301 640h77z" />
    <glyph glyph-name="bracketright" unicode="]" horiz-adv-x="296" 
d="M127 594h-87v46h171v-744h-171v46h87v652z" />
    <glyph glyph-name="asciicircum" unicode="^" horiz-adv-x="600" 
d="M90 283l176 357h66l178 -357h-73l-138 283l-137 -283h-72z" />
    <glyph glyph-name="underscore" unicode="_" horiz-adv-x="500" 
d="M0 -125v50h500v-50h-500z" />
    <glyph glyph-name="grave" unicode="`" horiz-adv-x="204" 
d="M-24 660h76l112 -140h-52z" />
    <glyph glyph-name="a" unicode="a" 
d="M549 100q0 -64 9 -100h-81l-8 30q-11 -21 -20.5 -25.5t-43.5 -4.5h-250q-69 0 -95.5 25.5t-26.5 96.5v72q0 69 26.5 95.5t95.5 26.5h267q26 0 34.5 10.5t8.5 41.5v6q0 31 -8 40.5t-35 9.5h-280q-64 0 -100 -9l7 55h378q69 0 95.5 -25.5t26.5 -96.5v-248zM465 270h-305
q-26 0 -34.5 -10.5t-8.5 -41.5v-120q0 -32 8 -42t35 -10h262q26 0 34.5 10.5t8.5 41.5v172z" />
    <glyph glyph-name="b" unicode="b" 
d="M128 640v-202q9 18 25.5 25t41.5 7h243q69 0 95.5 -25.5t26.5 -96.5v-226q0 -69 -26.5 -95.5t-95.5 -26.5h-248q-32 0 -47.5 8.5t-17.5 32.5l-7 -41h-84q6 20 8 42t2 58v440q0 64 -9 100h93zM128 98q0 -32 8 -42t35 -10h262q26 0 34.5 10.5t8.5 41.5v274q0 32 -8 42
t-35 10h-262q-26 0 -34.5 -10.5t-8.5 -41.5v-274z" />
    <glyph glyph-name="c" unicode="c" horiz-adv-x="537" 
d="M128 98q0 -32 8 -42t35 -10h253q64 0 100 9l-7 -55h-351q-69 0 -95.5 25.5t-26.5 96.5v226q0 69 26.5 95.5t95.5 26.5h344l4 -55q-36 9 -100 9h-243q-26 0 -34.5 -10.5t-8.5 -41.5v-274z" />
    <glyph glyph-name="d" unicode="d" 
d="M465 372q0 32 -8 42t-35 10h-262q-26 0 -34.5 -10.5t-8.5 -41.5v-274q0 -32 8 -42t35 -10h262q26 0 34.5 10.5t8.5 41.5v274zM549 640v-540q0 -64 9 -100h-82l-6 41q-7 -41 -67 -41h-248q-69 0 -95.5 25.5t-26.5 96.5v226q0 69 26.5 95.5t95.5 26.5h243q30 0 40.5 -4
t16 -13t10.5 -33l2 120q0 64 -9 100h91z" />
    <glyph glyph-name="e" unicode="e" 
d="M476 252v120q0 32 -8 42t-35 10h-273q-26 0 -34.5 -10.5t-8.5 -41.5v-120h359zM117 206v-108q0 -32 8 -42t35 -10h300q64 0 100 9l-10 -55h-395q-69 0 -95.5 25.5t-26.5 96.5v226q0 69 26.5 95.5t95.5 26.5h283q69 0 95.5 -25.5t26.5 -96.5v-142h-443z" />
    <glyph glyph-name="f" unicode="f" horiz-adv-x="407" 
d="M419 424h-238v-324q0 -64 9 -100h-102q9 36 9 100v324h-76v46h76v48q0 69 26.5 95.5t95.5 26.5h215l8 -55q-36 9 -100 9h-118q-26 0 -34.5 -10.5t-8.5 -41.5v-72h238v-46z" />
    <glyph glyph-name="g" unicode="g" 
d="M549 -56q0 -69 -26.5 -95.5t-95.5 -26.5h-372l-7 55q36 -9 100 -9h274q26 0 34.5 10.5t8.5 41.5v110q-12 -18 -22 -24t-39 -6h-249q-69 0 -95.5 25.5t-26.5 96.5v226q0 69 26.5 95.5t95.5 26.5h241q31 0 47 -8.5t20 -32.5l8 41h87q-9 -36 -9 -100v-426zM465 372
q0 32 -8 42t-35 10h-262q-26 0 -34.5 -10.5t-8.5 -41.5v-274q0 -32 8 -42t35 -10h262q26 0 34.5 10.5t8.5 41.5v274z" />
    <glyph glyph-name="h" unicode="h" horiz-adv-x="611" 
d="M44 540q0 64 -9 100h93v-202q11 20 22 26t36 6h259q69 0 95.5 -25.5t26.5 -96.5v-248q0 -64 9 -100h-102q9 36 9 100v272q0 32 -8 42t-35 10h-269q-26 0 -34.5 -10.5t-8.5 -41.5v-272q0 -64 9 -100h-102q9 36 9 100v440z" />
    <glyph glyph-name="i" unicode="i" horiz-adv-x="204" 
d="M144 100q0 -64 9 -100h-102q9 36 9 100v270q0 64 -9 100h93v-370zM60 596h84v-68h-84v68z" />
    <glyph glyph-name="j" unicode="j" horiz-adv-x="204" 
d="M148 -56q0 -69 -26.5 -95.5t-95.5 -26.5h-215l-7 57q30 -5 66 -8t59 -3h92q26 0 34.5 10.5t8.5 41.5v450q0 64 -9 100h93v-526zM64 596h84v-68h-84v68z" />
    <glyph glyph-name="k" unicode="k" horiz-adv-x="556" 
d="M539 470l-241 -162l176 -199l54.5 -61.5t51.5 -47.5h-118l-232 260l-102 -70v-90q0 -64 9 -100h-102q9 36 9 100v440q0 64 -9 100h93v-393l246 172l34.5 26.5t25.5 24.5h105z" />
    <glyph glyph-name="l" unicode="l" horiz-adv-x="204" 
d="M144 640v-540q0 -64 9 -100h-102q9 36 9 100v440q0 64 -9 100h93z" />
    <glyph glyph-name="m" unicode="m" horiz-adv-x="963" 
d="M128 470v-34l16 25q11 9 29 9h266q45 0 59 -9.5t22 -36.5q11 29 23 37.5t52 8.5h165q89 0 124.5 -29t35.5 -113v-228q0 -64 9 -100h-102q9 36 9 100v272q0 32 -8 42t-35 10h-226q-26 0 -34.5 -10.5t-8.5 -41.5v-272q0 -64 9 -100h-102q9 36 9 100v272q0 32 -8 42t-35 10
h-226q-26 0 -34.5 -10.5t-8.5 -41.5v-272q0 -64 9 -100h-102q9 36 9 100v270q0 64 -9 100h93z" />
    <glyph glyph-name="n" unicode="n" horiz-adv-x="611" 
d="M44 370q0 64 -9 100h97v-34q16 19 27.5 26.5t26.5 7.5h259q69 0 95.5 -25.5t26.5 -96.5v-248q0 -64 9 -100h-102q9 36 9 100v272q0 32 -8 42t-35 10h-269q-26 0 -34.5 -10.5t-8.5 -41.5v-272q0 -64 9 -100h-102q9 36 9 100v270z" />
    <glyph glyph-name="o" unicode="o" 
d="M560 122q0 -69 -26.5 -95.5t-95.5 -26.5h-283q-69 0 -95.5 25.5t-26.5 96.5v226q0 69 26.5 95.5t95.5 26.5h283q69 0 95.5 -25.5t26.5 -96.5v-226zM160 424q-26 0 -34.5 -10.5t-8.5 -41.5v-274q0 -32 8 -42t35 -10h273q26 0 34.5 10.5t8.5 41.5v274q0 32 -8 42t-35 10
h-273z" />
    <glyph glyph-name="p" unicode="p" 
d="M128 98q0 -32 8 -42t35 -10h262q26 0 34.5 10.5t8.5 41.5v274q0 32 -8 42t-35 10h-262q-26 0 -34.5 -10.5t-8.5 -41.5v-274zM44 370q0 64 -9 100h83l5 -41q7 41 67 41h245q71 0 98 -26t27 -96v-226q0 -70 -26 -96t-93 -26h-246q-26 0 -43 7.5t-22 24.5l-2 -110
q0 -64 9 -100h-102q9 36 9 100v448z" />
    <glyph glyph-name="q" unicode="q" 
d="M549 -78q0 -64 9 -100h-102q9 36 9 100v100q-12 -14 -24.5 -18t-47.5 -4h-238q-69 0 -95.5 25.5t-26.5 96.5v226q0 69 26.5 95.5t95.5 26.5h243q31 0 47 -8.5t20 -32.5l13 41h80q-9 -36 -9 -100v-448zM465 372q0 32 -8 42t-35 10h-262q-26 0 -34.5 -10.5t-8.5 -41.5v-274
q0 -32 8 -42t35 -10h262q26 0 34.5 10.5t8.5 41.5v274z" />
    <glyph glyph-name="r" unicode="r" horiz-adv-x="370" 
d="M371 470l-5 -71q-30 5 -66 8t-59 3h-70q-26 0 -34.5 -10.5t-8.5 -41.5v-258q0 -64 9 -100h-102q9 36 9 100v270q0 64 -9 100h84l4 -44q10 21 22 32.5t41 11.5h185z" />
    <glyph glyph-name="s" unicode="s" horiz-adv-x="556" 
d="M403 288q69 0 95.5 -25.5t26.5 -96.5v-86q0 -40 -26 -60t-87 -20h-374l-7 55q36 -9 100 -9h275q26 0 34.5 10.5t8.5 41.5v56q0 32 -8 42t-35 10h-254q-69 0 -95.5 25.5t-26.5 96.5v20q0 69 26.5 95.5t95.5 26.5h364l9 -55q-36 9 -100 9h-268q-26 0 -34.5 -10.5
t-8.5 -41.5v-32q0 -32 8 -42t35 -10h246z" />
    <glyph glyph-name="t" unicode="t" horiz-adv-x="444" 
d="M178 424v-326q0 -32 8 -42t35 -10h115q64 0 100 9l-7 -55h-213q-69 0 -95.5 25.5t-26.5 96.5v302h-73v46h73v93l84 16v-109h234v-46h-234z" />
    <glyph glyph-name="u" unicode="u" horiz-adv-x="611" 
d="M44 370q0 64 -9 100h93v-372q0 -32 8 -42t35 -10h269q26 0 34.5 10.5t8.5 41.5v272q0 64 -9 100h93v-370q0 -64 9 -100h-84l-5 34q-9 -19 -20.5 -26.5t-33.5 -7.5h-267q-69 0 -95.5 25.5t-26.5 96.5v248z" />
    <glyph glyph-name="v" unicode="v" horiz-adv-x="574" 
d="M85 470q4 -21 10 -38.5t12 -31.5l183 -360l182 340q27 51 32 90h92l-11 -12q-21 -21 -33 -38.5t-24 -39.5l-200 -380h-108l-211 416l-12 23t-19 31h107z" />
    <glyph glyph-name="w" unicode="w" horiz-adv-x="759" 
d="M101 470q0 -34 1.5 -42t17.5 -60l100 -308l126 410h107l131 -410l100 336q9 27 13 74h70q-9 -13 -18 -32.5t-18 -49.5l-116 -388h-93l-137 434l-132 -434h-97l-129 391q-10 32 -15.5 45t-19.5 34h109z" />
    <glyph glyph-name="x" unicode="x" horiz-adv-x="519" 
d="M522 470l-88 -86l-128 -134l119 -140l49 -56t55 -54h-131q-7 18 -15 31.5t-18 24.5l-116 134l-121 -129q-19 -20 -28 -32.5t-16 -28.5h-94q40 34 59.5 52.5t50.5 52.5l117 124l-153 178q-10 12 -31.5 33.5t-27.5 29.5h121q7 -14 27.5 -40l36.5 -45l84 -97l125 131
l19.5 21.5t18.5 29.5h85z" />
    <glyph glyph-name="y" unicode="y" horiz-adv-x="611" 
d="M566 -56q0 -69 -26.5 -95.5t-95.5 -26.5h-387l-8 55q36 -9 100 -9h290q26 0 34.5 10.5t8.5 41.5v95q-14 -15 -43 -15h-273q-69 0 -95.5 25.5t-26.5 96.5v248q0 64 -9 100h93v-372q0 -32 8 -42t35 -10h268q26 0 34.5 10.5t8.5 41.5v272q0 64 -9 100h93v-526z" />
    <glyph glyph-name="z" unicode="z" horiz-adv-x="556" 
d="M160 46h280q64 0 101 9l-5 -55h-521l380 424h-267q-64 0 -100 -9l7 55h503z" />
    <glyph glyph-name="braceleft" unicode="{" horiz-adv-x="315" 
d="M179 375q0 -37 -24.5 -68.5t-62.5 -36.5q42 -11 64.5 -39.5t22.5 -68.5v-162q0 -32 8 -42t35 -10h55v-52h-60q-69 0 -95.5 25.5t-26.5 96.5v130q0 43 -24.5 69.5t-58.5 26.5v52q33 0 58 26t25 66v130q0 69 26.5 95.5t95.5 26.5h60v-52h-55q-26 0 -34.5 -10.5t-8.5 -41.5
v-161z" />
    <glyph glyph-name="bar" unicode="|" horiz-adv-x="222" 
d="M73 640h76v-640h-76v640z" />
    <glyph glyph-name="braceright" unicode="}" horiz-adv-x="315" 
d="M136 161q0 37 24.5 68.5t62.5 36.5q-42 11 -64.5 39.5t-22.5 68.5v162q0 32 -8 42t-35 10h-55v52h60q69 0 95.5 -25.5t26.5 -96.5v-130q0 -43 24.5 -69.5t58.5 -26.5v-52q-33 0 -58 -26t-25 -66v-130q0 -69 -26.5 -95.5t-95.5 -26.5h-60v52h55q26 0 34.5 10.5t8.5 41.5
v161z" />
    <glyph glyph-name="asciitilde" unicode="~" horiz-adv-x="600" 
d="M514 248q-36 -50 -60 -65t-56 -15q-19 0 -34.5 5t-57.5 25t-61 27t-48 7q-28 0 -46.5 -18.5t-31.5 -49.5l-33 58q19 37 45.5 58.5t69.5 21.5q24 0 49.5 -8.5t53.5 -21.5t54.5 -23t40.5 -10q29 0 47 20.5t35 46.5z" />
    <glyph glyph-name="Adieresis" unicode="&#xc4;" horiz-adv-x="685" 
d="M568 0q-2 25 -9.5 45.5t-25.5 58.5l-44 92h-342l-52 -108q-18 -38 -23 -54.5t-5 -33.5h-84q25 29 45 69l255 531q-7 13 -13 20t-20 20h129l257 -525q20 -42 35 -69t31 -46h-134zM316 552l-146 -304h295zM232 769h64v-92h-64v92zM378 769h64v-92h-64v92z" />
    <glyph glyph-name="Aring" unicode="&#xc5;" horiz-adv-x="685" 
d="M568 0q-2 25 -9.5 45.5t-25.5 58.5l-44 92h-342l-52 -108q-18 -38 -23 -54.5t-5 -33.5h-84q25 29 45 69l255 531q-7 13 -13 20t-20 20h129l257 -525q20 -42 35 -69t31 -46h-134zM316 552l-146 -304h295zM337 877q43 0 73.5 -30.5t30.5 -73.5t-30.5 -73.5t-73.5 -30.5
t-73.5 30.5t-30.5 73.5t30.5 73.5t73.5 30.5zM337 831q-25 0 -41.5 -16.5t-16.5 -41.5t16.5 -41.5t41.5 -16.5t41.5 16.5t16.5 41.5t-16.5 41.5t-41.5 16.5z" />
    <glyph glyph-name="Ccedilla" unicode="&#xc7;" horiz-adv-x="556" 
d="M527 640l6 -64q-22 8 -58 10t-98 2h-190q-26 0 -34.5 -10.5t-8.5 -41.5v-432q0 -32 8 -42t35 -10h190h28q91 0 137 12l-6 -64h-353q-80 0 -110.5 25.5t-30.5 98.5v392q0 73 30.5 98.5t110.5 25.5h344zM352 0l-47 -59q30 6 37 6q27 0 52.5 -17.5t25.5 -52.5
q0 -39 -30.5 -62t-74.5 -23q-35 0 -52 4t-46 16l16 30q16 -6 32 -11t31 -5q30 0 49 13t19 34q0 40 -52 40q-10 0 -17 -1t-27 -7l-15 13l61 82h38z" />
    <glyph glyph-name="Eacute" unicode="&#xc9;" horiz-adv-x="556" 
d="M536 640l5 -59q-7 1 -39 4t-86 3h-261v-242h237q53 0 76 1.5t55 5.5v-66q-7 1 -43 4t-88 3h-237v-242h261q53 0 78 1.5t47 5.5l-5 -59h-492q9 36 9 100v440q0 64 -9 100h492zM283 667h-50l110 140h78z" />
    <glyph glyph-name="Ntilde" unicode="&#xd1;" horiz-adv-x="685" 
d="M503 0l-396 568l-2 -460q0 -33 1.5 -51.5t7.5 -56.5h-73q7 23 9.5 67t2.5 111v312q0 103 -10 150h131l403 -574l3 466q0 33 -1.5 51.5t-7.5 56.5h72q-6 -31 -8.5 -60.5t-2.5 -60.5v-15v-504h-129zM204 679l1 9q4 39 30 64t56 25q22 0 40 -7t35.5 -15.5t35 -16t30.5 -7.5
q22 0 31 13t15 37h38q-4 -41 -25 -68.5t-57 -27.5q-16 0 -36 6.5t-44 16.5t-39 15.5t-26 5.5q-21 0 -29.5 -11t-18.5 -39h-37z" />
    <glyph glyph-name="Odieresis" unicode="&#xd6;" horiz-adv-x="667" 
d="M492 640q73 0 103 -31.5t30 -90.5v-396q0 -59 -30 -90.5t-103 -31.5h-317q-73 0 -103 31.5t-30 90.5v396q0 59 30 90.5t103 31.5h317zM523 536q0 32 -8 42t-35 10h-293q-26 0 -34.5 -10.5t-8.5 -41.5v-432q0 -32 8 -42t35 -10h293q26 0 34.5 10.5t8.5 41.5v432zM229 769
h64v-92h-64v92zM375 769h64v-92h-64v92z" />
    <glyph glyph-name="Udieresis" unicode="&#xdc;" horiz-adv-x="667" 
d="M518 52q27 0 35.5 10.5t8.5 41.5v428q0 33 -1.5 51.5t-7.5 56.5h72q-6 -31 -8.5 -60.5t-2.5 -60.5v-15v-381q0 -72 -23 -97.5t-87 -25.5h-320q-75 0 -103 26t-28 97v417q0 64 -9 100h120q-9 -36 -9 -100v-436q0 -33 7 -42.5t32 -9.5h324zM229 769h64v-92h-64v92zM375 769
h64v-92h-64v92z" />
    <glyph glyph-name="aacute" unicode="&#xe1;" 
d="M549 100q0 -64 9 -100h-81l-8 30q-11 -21 -20.5 -25.5t-43.5 -4.5h-250q-69 0 -95.5 25.5t-26.5 96.5v72q0 69 26.5 95.5t95.5 26.5h267q26 0 34.5 10.5t8.5 41.5v6q0 31 -8 40.5t-35 9.5h-280q-64 0 -100 -9l7 55h378q69 0 95.5 -25.5t26.5 -96.5v-248zM465 270h-305
q-26 0 -34.5 -10.5t-8.5 -41.5v-120q0 -32 8 -42t35 -10h262q26 0 34.5 10.5t8.5 41.5v172zM285 520h-50l110 140h78z" />
    <glyph glyph-name="agrave" unicode="&#xe0;" 
d="M549 100q0 -64 9 -100h-81l-8 30q-11 -21 -20.5 -25.5t-43.5 -4.5h-250q-69 0 -95.5 25.5t-26.5 96.5v72q0 69 26.5 95.5t95.5 26.5h267q26 0 34.5 10.5t8.5 41.5v6q0 31 -8 40.5t-35 9.5h-280q-64 0 -100 -9l7 55h378q69 0 95.5 -25.5t26.5 -96.5v-248zM465 270h-305
q-26 0 -34.5 -10.5t-8.5 -41.5v-120q0 -32 8 -42t35 -10h262q26 0 34.5 10.5t8.5 41.5v172zM171 660h76l112 -140h-52z" />
    <glyph glyph-name="acircumflex" unicode="&#xe2;" 
d="M549 100q0 -64 9 -100h-81l-8 30q-11 -21 -20.5 -25.5t-43.5 -4.5h-250q-69 0 -95.5 25.5t-26.5 96.5v72q0 69 26.5 95.5t95.5 26.5h267q26 0 34.5 10.5t8.5 41.5v6q0 31 -8 40.5t-35 9.5h-280q-64 0 -100 -9l7 55h378q69 0 95.5 -25.5t26.5 -96.5v-248zM465 270h-305
q-26 0 -34.5 -10.5t-8.5 -41.5v-120q0 -32 8 -42t35 -10h262q26 0 34.5 10.5t8.5 41.5v172zM330 660l113 -140h-64l-82 103l-82 -103h-64l112 140h67z" />
    <glyph glyph-name="adieresis" unicode="&#xe4;" 
d="M549 100q0 -64 9 -100h-81l-8 30q-11 -21 -20.5 -25.5t-43.5 -4.5h-250q-69 0 -95.5 25.5t-26.5 96.5v72q0 69 26.5 95.5t95.5 26.5h267q26 0 34.5 10.5t8.5 41.5v6q0 31 -8 40.5t-35 9.5h-280q-64 0 -100 -9l7 55h378q69 0 95.5 -25.5t26.5 -96.5v-248zM465 270h-305
q-26 0 -34.5 -10.5t-8.5 -41.5v-120q0 -32 8 -42t35 -10h262q26 0 34.5 10.5t8.5 41.5v172zM192 622h64v-92h-64v92zM338 622h64v-92h-64v92z" />
    <glyph glyph-name="atilde" unicode="&#xe3;" 
d="M549 100q0 -64 9 -100h-81l-8 30q-11 -21 -20.5 -25.5t-43.5 -4.5h-250q-69 0 -95.5 25.5t-26.5 96.5v72q0 69 26.5 95.5t95.5 26.5h267q26 0 34.5 10.5t8.5 41.5v6q0 31 -8 40.5t-35 9.5h-280q-64 0 -100 -9l7 55h378q69 0 95.5 -25.5t26.5 -96.5v-248zM465 270h-305
q-26 0 -34.5 -10.5t-8.5 -41.5v-120q0 -32 8 -42t35 -10h262q26 0 34.5 10.5t8.5 41.5v172zM141 532l1 9q4 39 30 64t56 25q22 0 40 -7t35.5 -15.5t35 -16t30.5 -7.5q22 0 31 13t15 37h38q-4 -41 -25 -68.5t-57 -27.5q-16 0 -36 6.5t-44 16.5t-39 15.5t-26 5.5
q-21 0 -29.5 -11t-18.5 -39h-37z" />
    <glyph glyph-name="aring" unicode="&#xe5;" 
d="M549 100q0 -64 9 -100h-81l-8 30q-11 -21 -20.5 -25.5t-43.5 -4.5h-250q-69 0 -95.5 25.5t-26.5 96.5v72q0 69 26.5 95.5t95.5 26.5h267q26 0 34.5 10.5t8.5 41.5v6q0 31 -8 40.5t-35 9.5h-280q-64 0 -100 -9l7 55h378q69 0 95.5 -25.5t26.5 -96.5v-248zM465 270h-305
q-26 0 -34.5 -10.5t-8.5 -41.5v-120q0 -32 8 -42t35 -10h262q26 0 34.5 10.5t8.5 41.5v172zM297 730q43 0 73.5 -30.5t30.5 -73.5t-30.5 -73.5t-73.5 -30.5t-73.5 30.5t-30.5 73.5t30.5 73.5t73.5 30.5zM297 684q-25 0 -41.5 -16.5t-16.5 -41.5t16.5 -41.5t41.5 -16.5
t41.5 16.5t16.5 41.5t-16.5 41.5t-41.5 16.5z" />
    <glyph glyph-name="ccedilla" unicode="&#xe7;" horiz-adv-x="537" 
d="M128 98q0 -32 8 -42t35 -10h253q64 0 100 9l-7 -55h-351q-69 0 -95.5 25.5t-26.5 96.5v226q0 69 26.5 95.5t95.5 26.5h344l4 -55q-36 9 -100 9h-243q-26 0 -34.5 -10.5t-8.5 -41.5v-274zM331 0l-47 -59q30 6 37 6q27 0 52.5 -17.5t25.5 -52.5q0 -39 -30.5 -62t-74.5 -23
q-35 0 -52 4t-46 16l16 30q16 -6 32 -11t31 -5q30 0 49 13t19 34q0 40 -52 40q-10 0 -17 -1t-27 -7l-15 13l61 82h38z" />
    <glyph glyph-name="eacute" unicode="&#xe9;" 
d="M476 252v120q0 32 -8 42t-35 10h-273q-26 0 -34.5 -10.5t-8.5 -41.5v-120h359zM117 206v-108q0 -32 8 -42t35 -10h300q64 0 100 9l-10 -55h-395q-69 0 -95.5 25.5t-26.5 96.5v226q0 69 26.5 95.5t95.5 26.5h283q69 0 95.5 -25.5t26.5 -96.5v-142h-443zM285 520h-50
l110 140h78z" />
    <glyph glyph-name="egrave" unicode="&#xe8;" 
d="M476 252v120q0 32 -8 42t-35 10h-273q-26 0 -34.5 -10.5t-8.5 -41.5v-120h359zM117 206v-108q0 -32 8 -42t35 -10h300q64 0 100 9l-10 -55h-395q-69 0 -95.5 25.5t-26.5 96.5v226q0 69 26.5 95.5t95.5 26.5h283q69 0 95.5 -25.5t26.5 -96.5v-142h-443zM171 660h76
l112 -140h-52z" />
    <glyph glyph-name="ecircumflex" unicode="&#xea;" 
d="M476 252v120q0 32 -8 42t-35 10h-273q-26 0 -34.5 -10.5t-8.5 -41.5v-120h359zM117 206v-108q0 -32 8 -42t35 -10h300q64 0 100 9l-10 -55h-395q-69 0 -95.5 25.5t-26.5 96.5v226q0 69 26.5 95.5t95.5 26.5h283q69 0 95.5 -25.5t26.5 -96.5v-142h-443zM330 660l113 -140
h-64l-82 103l-82 -103h-64l112 140h67z" />
    <glyph glyph-name="edieresis" unicode="&#xeb;" 
d="M476 252v120q0 32 -8 42t-35 10h-273q-26 0 -34.5 -10.5t-8.5 -41.5v-120h359zM117 206v-108q0 -32 8 -42t35 -10h300q64 0 100 9l-10 -55h-395q-69 0 -95.5 25.5t-26.5 96.5v226q0 69 26.5 95.5t95.5 26.5h283q69 0 95.5 -25.5t26.5 -96.5v-142h-443zM192 622h64v-92
h-64v92zM338 622h64v-92h-64v92z" />
    <glyph glyph-name="iacute" unicode="&#xed;" horiz-adv-x="204" 
d="M144 108q0 -33 1.5 -51.5t7.5 -56.5h-102q3 22 6 53t3 55v262q0 64 -9 100h93v-362zM90 520h-50l110 140h78z" />
    <glyph glyph-name="igrave" unicode="&#xec;" horiz-adv-x="204" 
d="M144 108q0 -33 1.5 -51.5t7.5 -56.5h-102q3 22 6 53t3 55v262q0 64 -9 100h93v-362zM-24 660h76l112 -140h-52z" />
    <glyph glyph-name="icircumflex" unicode="&#xee;" horiz-adv-x="204" 
d="M144 108q0 -33 1.5 -51.5t7.5 -56.5h-102q3 22 6 53t3 55v262q0 64 -9 100h93v-362zM135 660l113 -140h-64l-82 103l-82 -103h-64l112 140h67z" />
    <glyph glyph-name="idieresis" unicode="&#xef;" horiz-adv-x="204" 
d="M144 108q0 -33 1.5 -51.5t7.5 -56.5h-102q3 22 6 53t3 55v262q0 64 -9 100h93v-362zM-3 622h64v-92h-64v92zM143 622h64v-92h-64v92z" />
    <glyph glyph-name="ntilde" unicode="&#xf1;" horiz-adv-x="611" 
d="M44 370q0 64 -9 100h97v-34q16 19 27.5 26.5t26.5 7.5h259q69 0 95.5 -25.5t26.5 -96.5v-248q0 -64 9 -100h-102q9 36 9 100v272q0 32 -8 42t-35 10h-269q-26 0 -34.5 -10.5t-8.5 -41.5v-272q0 -64 9 -100h-102q9 36 9 100v270zM150 532l1 9q4 39 30 64t56 25q22 0 40 -7
t35.5 -15.5t35 -16t30.5 -7.5q22 0 31 13t15 37h38q-4 -41 -25 -68.5t-57 -27.5q-16 0 -36 6.5t-44 16.5t-39 15.5t-26 5.5q-21 0 -29.5 -11t-18.5 -39h-37z" />
    <glyph glyph-name="oacute" unicode="&#xf3;" 
d="M560 122q0 -69 -26.5 -95.5t-95.5 -26.5h-283q-69 0 -95.5 25.5t-26.5 96.5v226q0 69 26.5 95.5t95.5 26.5h283q69 0 95.5 -25.5t26.5 -96.5v-226zM160 424q-26 0 -34.5 -10.5t-8.5 -41.5v-274q0 -32 8 -42t35 -10h273q26 0 34.5 10.5t8.5 41.5v274q0 32 -8 42t-35 10
h-273zM285 520h-50l110 140h78z" />
    <glyph glyph-name="ograve" unicode="&#xf2;" 
d="M560 122q0 -69 -26.5 -95.5t-95.5 -26.5h-283q-69 0 -95.5 25.5t-26.5 96.5v226q0 69 26.5 95.5t95.5 26.5h283q69 0 95.5 -25.5t26.5 -96.5v-226zM160 424q-26 0 -34.5 -10.5t-8.5 -41.5v-274q0 -32 8 -42t35 -10h273q26 0 34.5 10.5t8.5 41.5v274q0 32 -8 42t-35 10
h-273zM171 660h76l112 -140h-52z" />
    <glyph glyph-name="ocircumflex" unicode="&#xf4;" 
d="M560 122q0 -69 -26.5 -95.5t-95.5 -26.5h-283q-69 0 -95.5 25.5t-26.5 96.5v226q0 69 26.5 95.5t95.5 26.5h283q69 0 95.5 -25.5t26.5 -96.5v-226zM160 424q-26 0 -34.5 -10.5t-8.5 -41.5v-274q0 -32 8 -42t35 -10h273q26 0 34.5 10.5t8.5 41.5v274q0 32 -8 42t-35 10
h-273zM330 660l113 -140h-64l-82 103l-82 -103h-64l112 140h67z" />
    <glyph glyph-name="odieresis" unicode="&#xf6;" 
d="M560 122q0 -69 -26.5 -95.5t-95.5 -26.5h-283q-69 0 -95.5 25.5t-26.5 96.5v226q0 69 26.5 95.5t95.5 26.5h283q69 0 95.5 -25.5t26.5 -96.5v-226zM160 424q-26 0 -34.5 -10.5t-8.5 -41.5v-274q0 -32 8 -42t35 -10h273q26 0 34.5 10.5t8.5 41.5v274q0 32 -8 42t-35 10
h-273zM192 622h64v-92h-64v92zM338 622h64v-92h-64v92z" />
    <glyph glyph-name="otilde" unicode="&#xf5;" 
d="M560 122q0 -69 -26.5 -95.5t-95.5 -26.5h-283q-69 0 -95.5 25.5t-26.5 96.5v226q0 69 26.5 95.5t95.5 26.5h283q69 0 95.5 -25.5t26.5 -96.5v-226zM160 424q-26 0 -34.5 -10.5t-8.5 -41.5v-274q0 -32 8 -42t35 -10h273q26 0 34.5 10.5t8.5 41.5v274q0 32 -8 42t-35 10
h-273zM141 532l1 9q4 39 30 64t56 25q22 0 40 -7t35.5 -15.5t35 -16t30.5 -7.5q22 0 31 13t15 37h38q-4 -41 -25 -68.5t-57 -27.5q-16 0 -36 6.5t-44 16.5t-39 15.5t-26 5.5q-21 0 -29.5 -11t-18.5 -39h-37z" />
    <glyph glyph-name="uacute" unicode="&#xfa;" horiz-adv-x="611" 
d="M44 370q0 64 -9 100h93v-372q0 -32 8 -42t35 -10h269q26 0 34.5 10.5t8.5 41.5v272q0 64 -9 100h93v-370q0 -64 9 -100h-84l-5 34q-9 -19 -20.5 -26.5t-33.5 -7.5h-267q-69 0 -95.5 25.5t-26.5 96.5v248zM294 520h-50l110 140h78z" />
    <glyph glyph-name="ugrave" unicode="&#xf9;" horiz-adv-x="611" 
d="M44 370q0 64 -9 100h93v-372q0 -32 8 -42t35 -10h269q26 0 34.5 10.5t8.5 41.5v272q0 64 -9 100h93v-370q0 -64 9 -100h-84l-5 34q-9 -19 -20.5 -26.5t-33.5 -7.5h-267q-69 0 -95.5 25.5t-26.5 96.5v248zM180 660h76l112 -140h-52z" />
    <glyph glyph-name="ucircumflex" unicode="&#xfb;" horiz-adv-x="611" 
d="M44 370q0 64 -9 100h93v-372q0 -32 8 -42t35 -10h269q26 0 34.5 10.5t8.5 41.5v272q0 64 -9 100h93v-370q0 -64 9 -100h-84l-5 34q-9 -19 -20.5 -26.5t-33.5 -7.5h-267q-69 0 -95.5 25.5t-26.5 96.5v248zM339 660l113 -140h-64l-82 103l-82 -103h-64l112 140h67z" />
    <glyph glyph-name="udieresis" unicode="&#xfc;" horiz-adv-x="611" 
d="M44 370q0 64 -9 100h93v-372q0 -32 8 -42t35 -10h269q26 0 34.5 10.5t8.5 41.5v272q0 64 -9 100h93v-370q0 -64 9 -100h-84l-5 34q-9 -19 -20.5 -26.5t-33.5 -7.5h-267q-69 0 -95.5 25.5t-26.5 96.5v248zM201 622h64v-92h-64v92zM347 622h64v-92h-64v92z" />
    <glyph glyph-name="dagger" unicode="&#x2020;" horiz-adv-x="611" 
d="M348 640v-242h176v-62h-176v-514h-84v514h-176v62h176v242h84z" />
    <glyph glyph-name="degree" unicode="&#xb0;" horiz-adv-x="400" 
d="M200 396q41 0 68 29t27 72q0 42 -26.5 71.5t-68.5 29.5q-41 0 -68 -29t-27 -72q0 -42 26.5 -71.5t68.5 -29.5zM343 497q0 -60 -41.5 -101.5t-101.5 -41.5t-101.5 41.5t-41.5 101.5t41.5 101.5t101.5 41.5t101.5 -41.5t41.5 -101.5z" />
    <glyph glyph-name="cent" unicode="&#xa2;" horiz-adv-x="463" 
d="M420 526l4 -53q-30 5 -66 8t-59 3h-101q-26 0 -34.5 -10.5t-8.5 -41.5v-215q0 -32 8 -42t35 -10h101h18h15h12h12q40 0 68 4l-4 -46h-139v-104h-46v104h-95q-38 0 -55.5 15.5t-17.5 57.5v257q0 42 17.5 57.5t55.5 15.5h95v90h46v-90h139z" />
    <glyph glyph-name="sterling" unicode="&#xa3;" horiz-adv-x="667" 
d="M523 463v73q0 32 -8 42t-35 10h-287q-26 0 -34.5 -10.5t-8.5 -41.5v-71q0 -29 25 -54l56 -59h315v-56h-271q15 -18 30.5 -48t15.5 -58q0 -58 -43.5 -95t-80.5 -41l283 -2q26 0 34.5 10.5t8.5 41.5v93h102v-75q0 -69 -26.5 -95.5t-95.5 -26.5h-464v49q106 10 143 49.5
t37 76.5q0 30 -19 59t-47 62h-139v56h90q-56 38 -56 86v80q0 69 26.5 95.5t95.5 26.5h333q69 0 95.5 -25.5t26.5 -96.5v-55h-102z" />
    <glyph glyph-name="section" unicode="&#xa7;" horiz-adv-x="611" 
d="M491 286q0 32 -8 42t-35 10h-285q-26 0 -34.5 -10.5t-8.5 -41.5v-94q0 -32 8 -42t35 -10h285q26 0 34.5 10.5t8.5 41.5v94zM65 -178l-16 70q36 -13 66.5 -18.5t58.5 -5.5h274q26 0 34.5 10.5t8.5 41.5v88q0 32 -8 42t-35 10h-290q-69 0 -95.5 25.5t-26.5 96.5v91
q0 42 9.5 65.5t48.5 26.5q-38 8 -48 25t-10 72v56q0 69 26.5 95.5t95.5 26.5h390l13 -70q-36 13 -66.5 18.5t-58.5 5.5h-273q-26 0 -34.5 -10.5t-8.5 -41.5v-72q0 -32 8 -42t35 -10h290q69 0 95.5 -25.5t26.5 -96.5v-67q0 -61 -4.5 -86.5t-52.5 -31.5q39 -8 48 -27.5
t9 -82.5v-57q0 -69 -26.5 -95.5t-95.5 -26.5h-388z" />
    <glyph glyph-name="bullet" unicode="&#x2022;" horiz-adv-x="500" 
d="M250 480q66 0 113 -47t47 -113t-47 -113t-113 -47t-113 47t-47 113t47 113t113 47z" />
    <glyph glyph-name="paragraph" unicode="&#xb6;" horiz-adv-x="600" 
d="M243 301q-95 0 -154.5 46.5t-59.5 119.5q0 89 61.5 131t171.5 42h260v-818h-84v762h-111v-762h-84v479z" />
    <glyph glyph-name="germandbls" unicode="&#xdf;" horiz-adv-x="611" 
d="M-4 470h77v87q0 48 23 65.5t77 17.5h250q55 0 77.5 -17t22.5 -66v-50q0 -47 -8 -62t-43 -21q64 -2 84 -18.5t20 -94.5v-228q0 -48 -23 -65.5t-77 -17.5h-238v60q13 -4 50.5 -9t74.5 -5h86q26 0 34.5 10.5t8.5 41.5v229q0 33 -7 42.5t-34 9.5h-217v56h162q26 0 34.5 10.5
t8.5 41.5v55q0 32 -8 42t-35 10h-196q-26 0 -34.5 -10.5t-8.5 -41.5v-542h-93q3 22 6 53t3 55v316h-77v46z" />
    <glyph glyph-name="registered" unicode="&#xae;" horiz-adv-x="800" 
d="M725 320q0 -138 -96 -229t-229 -91q-134 0 -229.5 90.5t-95.5 229.5q0 138 96 229t229 91q134 0 229.5 -90.5t95.5 -229.5zM653 320q0 113 -72.5 188.5t-180.5 75.5t-180.5 -75.5t-72.5 -188.5t72.5 -188.5t180.5 -75.5t180.5 75.5t72.5 188.5zM335 137h-60v366h139
q134 0 134 -105q0 -48 -25.5 -71.5t-71.5 -28.5l103 -161h-65l-95 158h-59v-158zM408 347q46 0 63 13.5t17 38.5q0 31 -22.5 41.5t-57.5 10.5h-73v-104h73z" />
    <glyph glyph-name="copyright" unicode="&#xa9;" horiz-adv-x="800" 
d="M725 320q0 -138 -96 -229t-229 -91q-134 0 -229.5 90.5t-95.5 229.5q0 138 96 229t229 91q134 0 229.5 -90.5t95.5 -229.5zM147 320q0 -113 72.5 -188.5t180.5 -75.5t180.5 75.5t72.5 188.5t-72.5 188.5t-180.5 75.5t-180.5 -75.5t-72.5 -188.5zM568 259
q-9 -63 -52.5 -97.5t-105.5 -34.5q-85 0 -135 54t-50 140t50 140t135 54q62 0 105.5 -34.5t52.5 -97.5h-61q-7 33 -33 52.5t-64 19.5q-55 0 -85 -36.5t-30 -97.5q0 -62 29.5 -98t85.5 -36q38 0 64 19t33 53h61z" />
    <glyph glyph-name="trademark" unicode="&#x2122;" horiz-adv-x="990" 
d="M402 584h-112v-314h-76v314h-112v56h300v-56zM683 378l100 262h105v-370h-68v292l-113 -292h-50l-111 292l-2 -292h-68v370h105z" />
    <glyph glyph-name="acute" unicode="&#xb4;" horiz-adv-x="204" 
d="M90 520h-50l110 140h78z" />
    <glyph glyph-name="dieresis" unicode="&#xa8;" horiz-adv-x="204" 
d="M-3 622h64v-92h-64v92zM143 622h64v-92h-64v92z" />
    <glyph glyph-name="AE" unicode="&#xc6;" horiz-adv-x="926" 
d="M421 252v306q0 17 -1.5 23.5t-6.5 6.5q-3 0 -6.5 -4.5t-9.5 -13.5l-205 -318h229zM523 346h235q53 0 76 1.5t55 5.5v-66q-7 1 -43 4t-88 3h-235v-242h263q53 0 78 1.5t47 5.5l-6 -59h-493q9 36 9 100v100h-261l-51 -78q-29 -46 -38 -67t-12 -53l-100 -2q20 21 37 42
t47 68l324 500l-53 30h591l6 -59q-7 1 -39 4t-86 3h-263v-242z" />
    <glyph glyph-name="Oslash" unicode="&#xd8;" horiz-adv-x="667" 
d="M159 58q8 -6 28 -6h293q26 0 34.5 10.5t8.5 41.5v409zM512 579q-6 9 -32 9h-293q-26 0 -34.5 -10.5t-8.5 -41.5v-418zM30 -103h-62l107 134q-16 14 -24.5 38t-8.5 53v396q0 59 30 90.5t103 31.5h317q35 0 62 -8l82 102h63l-102 -128q14 -15 21 -38t7 -50v-396
q0 -59 -30 -90.5t-103 -31.5h-317q-35 0 -57 7z" />
    <glyph glyph-name="plusminus" unicode="&#xb1;" horiz-adv-x="600" 
d="M262 470h76v-142h197v-76h-197v-143h-76v143h-197v76h197v142zM65 76h470v-76h-470v76z" />
    <glyph glyph-name="yen" unicode="&#xa5;" horiz-adv-x="667" 
d="M592 216h-207v-116q0 -64 9 -100h-120q9 36 9 100v116h-201v56h196l-47 68h-149v56h110l-50 72l-59 84t-63 88h145q7 -30 14.5 -46.5t34.5 -55.5l148 -214l177 269q6 10 12 25t8 22h88q-24 -24 -40 -45t-46 -65l-89 -134h120v-56h-158l-45 -68h203v-56z" />
    <glyph glyph-name="uni00B5" unicode="&#xb5;" horiz-adv-x="611" 
d="M567 108q0 -33 1.5 -51.5t7.5 -56.5h-84l-5 34q-9 -19 -20.5 -26.5t-33.5 -7.5h-267q-23 0 -38 3v-81q0 -64 9 -100h-102q9 36 9 100v440q0 33 -1.5 51.5t-7.5 56.5h93v-372q0 -32 8 -42t35 -10h269q26 0 34.5 10.5t8.5 41.5v264q0 33 -1.5 51.5t-7.5 56.5h93v-362z" />
    <glyph glyph-name="ordfeminine" unicode="&#xaa;" horiz-adv-x="356" 
d="M348 423l2 -65h-50l-5 18q-6 -11 -14 -16q-6 -2 -28 -2h-163q-44 0 -61.5 15.5t-17.5 57.5v47q0 43 17.5 58.5t61.5 15.5h174q17 0 22.5 5.5t5.5 21.5q0 19 -8 23t-20 4h-165q-25 0 -45 -1.5t-37 -4.5l5 40h247q44 0 61.5 -15.5t17.5 -57.5v-144zM292 518h-197
q-16 0 -22 -6t-6 -25v-64q0 -19 5 -25t23 -6h169q16 0 22 6.5t6 24.5v95z" />
    <glyph glyph-name="ordmasculine" unicode="&#xba;" horiz-adv-x="356" 
d="M349 431q0 -42 -17.5 -57.5t-61.5 -15.5h-184q-44 0 -61.5 15.5t-17.5 57.5v136q0 42 17.5 57.5t61.5 15.5h184q44 0 61.5 -15.5t17.5 -57.5v-136zM293 575q0 19 -5 25t-23 6h-174q-16 0 -22 -6t-6 -25v-152q0 -19 5 -25t23 -6h174q16 0 22 6.5t6 24.5v152z" />
    <glyph glyph-name="ae" unicode="&#xe6;" horiz-adv-x="1000" 
d="M888 252v120q0 32 -8 42t-35 10h-267q-26 0 -34.5 -10.5t-8.5 -41.5v-120h353zM964 0h-440q-32 0 -52 28q-20 -28 -52 -28h-265q-69 0 -95.5 25.5t-26.5 96.5v72q0 69 26.5 95.5t95.5 26.5h253q26 0 34.5 10.5t8.5 41.5v6q0 31 -8 40.5t-35 9.5h-266q-64 0 -100 -9l7 55
h801q69 0 95.5 -25.5t26.5 -96.5v-142h-437v-108q0 -32 8 -42t35 -10h296q64 0 100 9zM451 270h-291q-26 0 -34.5 -10.5t-8.5 -41.5v-120q0 -32 8 -42t35 -10h248q26 0 34.5 10.5t8.5 41.5v172z" />
    <glyph glyph-name="oslash" unicode="&#xf8;" 
d="M425 424h-265q-26 0 -34.5 -10.5t-8.5 -41.5v-274q0 -28 6 -36zM171 46h262q26 0 34.5 10.5t8.5 41.5v274q0 25 -5 34zM47 -103h-62l96 115q-48 23 -48 110v226q0 69 26.5 95.5t95.5 26.5h283l24 -1l83 100h63l-94 -112q46 -22 46 -109v-226q0 -69 -26.5 -95.5
t-95.5 -26.5h-283l-21 1z" />
    <glyph glyph-name="questiondown" unicode="&#xbf;" 
d="M155 -170q-69 0 -95.5 25.5t-26.5 96.5v111q0 52 20.5 72.5t59.5 20.5h140q26 0 34.5 10.5t8.5 41.5v137h102v-178q0 -31 -17 -44t-60 -13h-143q-26 0 -34.5 -10.5t-8.5 -41.5v-130q0 -32 8 -42t35 -10h281q37 0 66 3t59 8l-5 -57h-424zM296 470h102v-86h-102v86z" />
    <glyph glyph-name="exclamdown" unicode="&#xa1;" horiz-adv-x="222" 
d="M60 470h102v-86h-102v86zM60 -170v347q0 38 2.5 72.5t9.5 96.5h78q5 -44 8.5 -84t3.5 -85v-347h-102z" />
    <glyph glyph-name="logicalnot" unicode="&#xac;" horiz-adv-x="600" 
d="M459 294h-394v76h470v-270h-76v194z" />
    <glyph glyph-name="florin" unicode="&#x192;" horiz-adv-x="500" 
d="M494 640l6 -73q-25 12 -40.5 16.5t-43.5 4.5q-22 0 -36.5 -9.5t-21.5 -34.5l-43 -162h127v-52h-141l-104 -389q-23 -84 -53 -101.5t-121 -17.5h-75l-10 73q39 -21 79 -21q34 0 50.5 13.5t25.5 45.5l108 397h-99v52h113l37 139q22 81 40 100t81 19h121z" />
    <glyph glyph-name="guillemotleft" unicode="&#xab;" horiz-adv-x="444" 
d="M383 55h-63l-97 180l97 180h63l-97 -180zM222 55h-63l-97 180l97 180h63l-97 -180z" />
    <glyph glyph-name="guillemotright" unicode="&#xbb;" horiz-adv-x="444" 
d="M61 415h63l97 -180l-97 -180h-63l97 180zM222 415h63l97 -180l-97 -180h-63l97 180z" />
    <glyph glyph-name="ellipsis" unicode="&#x2026;" horiz-adv-x="1000" 
d="M218 0h-102v86h102v-86zM551 0h-102v86h102v-86zM884 0h-102v86h102v-86z" />
    <glyph glyph-name="uni00A0" unicode="&#xa0;" horiz-adv-x="250" 
 />
    <glyph glyph-name="Agrave" unicode="&#xc0;" horiz-adv-x="685" 
d="M568 0q-2 25 -9.5 45.5t-25.5 58.5l-44 92h-342l-52 -108q-18 -38 -23 -54.5t-5 -33.5h-84q25 29 45 69l255 531q-7 13 -13 20t-20 20h129l257 -525q20 -42 35 -69t31 -46h-134zM316 552l-146 -304h295zM211 807h76l112 -140h-52z" />
    <glyph glyph-name="Atilde" unicode="&#xc3;" horiz-adv-x="685" 
d="M568 0q-2 25 -9.5 45.5t-25.5 58.5l-44 92h-342l-52 -108q-18 -38 -23 -54.5t-5 -33.5h-84q25 29 45 69l255 531q-7 13 -13 20t-20 20h129l257 -525q20 -42 35 -69t31 -46h-134zM316 552l-146 -304h295zM181 679l1 9q4 39 30 64t56 25q22 0 40 -7t35.5 -15.5t35 -16
t30.5 -7.5q22 0 31 13t15 37h38q-4 -41 -25 -68.5t-57 -27.5q-16 0 -36 6.5t-44 16.5t-39 15.5t-26 5.5q-21 0 -29.5 -11t-18.5 -39h-37z" />
    <glyph glyph-name="Otilde" unicode="&#xd5;" horiz-adv-x="667" 
d="M492 640q73 0 103 -31.5t30 -90.5v-396q0 -59 -30 -90.5t-103 -31.5h-317q-73 0 -103 31.5t-30 90.5v396q0 59 30 90.5t103 31.5h317zM523 536q0 32 -8 42t-35 10h-293q-26 0 -34.5 -10.5t-8.5 -41.5v-432q0 -32 8 -42t35 -10h293q26 0 34.5 10.5t8.5 41.5v432zM178 679
l1 9q4 39 30 64t56 25q22 0 40 -7t35.5 -15.5t35 -16t30.5 -7.5q22 0 31 13t15 37h38q-4 -41 -25 -68.5t-57 -27.5q-16 0 -36 6.5t-44 16.5t-39 15.5t-26 5.5q-21 0 -29.5 -11t-18.5 -39h-37z" />
    <glyph glyph-name="OE" unicode="&#x152;" horiz-adv-x="1000" 
d="M194 588q-26 0 -34.5 -10.5t-8.5 -41.5v-432q0 -32 8 -42t35 -10h279q26 0 34.5 10.5t8.5 41.5v432q0 32 -8 42t-35 10h-279zM49 518q0 59 30 90.5t103 31.5h798l5 -59q-7 1 -39 4t-86 3h-242v-242h218q53 0 76 1.5t55 5.5v-66q-7 1 -43 4t-88 3h-218v-242h242
q53 0 78 1.5t47 5.5l-5 -59h-798q-73 0 -103 31.5t-30 90.5v396z" />
    <glyph glyph-name="oe" unicode="&#x153;" horiz-adv-x="1000" 
d="M888 252v120q0 32 -8 42t-35 10h-258q-26 0 -34.5 -10.5t-8.5 -41.5v-120h344zM966 0h-811q-69 0 -95.5 25.5t-26.5 96.5v226q0 69 26.5 95.5t95.5 26.5h695q69 0 95.5 -25.5t26.5 -96.5v-142h-428v-108q0 -32 8 -42t35 -10h289q64 0 100 9zM160 424q-26 0 -34.5 -10.5
t-8.5 -41.5v-274q0 -32 8 -42t35 -10h257q26 0 34.5 10.5t8.5 41.5v274q0 32 -8 42t-35 10h-257z" />
    <glyph glyph-name="endash" unicode="&#x2013;" horiz-adv-x="500" 
d="M500 263v-56h-500v56h500z" />
    <glyph glyph-name="emdash" unicode="&#x2014;" horiz-adv-x="1000" 
d="M1000 263v-56h-1000v56h1000z" />
    <glyph glyph-name="quotedblleft" unicode="&#x201c;" horiz-adv-x="370" 
d="M60 502v86l48 52h46l-32 -52h40v-86h-102zM208 502v86l48 52h46l-32 -52h40v-86h-102z" />
    <glyph glyph-name="quotedblright" unicode="&#x201d;" horiz-adv-x="370" 
d="M162 640v-86l-48 -52h-46l32 52h-40v86h102zM310 640v-86l-48 -52h-46l32 52h-40v86h102z" />
    <glyph glyph-name="quoteleft" unicode="&#x2018;" horiz-adv-x="222" 
d="M60 502v86l48 52h46l-32 -52h40v-86h-102z" />
    <glyph glyph-name="quoteright" unicode="&#x2019;" horiz-adv-x="222" 
d="M162 640v-86l-48 -52h-46l32 52h-40v86h102z" />
    <glyph glyph-name="divide" unicode="&#xf7;" horiz-adv-x="600" 
d="M65 197v76h470v-76h-470zM367 43q0 -28 -19.5 -47.5t-47.5 -19.5t-47.5 19.5t-19.5 47.5t19.5 47.5t47.5 19.5t47.5 -19.5t19.5 -47.5zM367 427q0 -28 -19.5 -47.5t-47.5 -19.5t-47.5 19.5t-19.5 47.5t19.5 47.5t47.5 19.5t47.5 -19.5t19.5 -47.5z" />
    <glyph glyph-name="ydieresis" unicode="&#xff;" horiz-adv-x="611" 
d="M566 -56q0 -69 -26.5 -95.5t-95.5 -26.5h-387l-8 55q36 -9 100 -9h290q26 0 34.5 10.5t8.5 41.5v95q-14 -15 -43 -15h-273q-69 0 -95.5 25.5t-26.5 96.5v248q0 64 -9 100h93v-372q0 -32 8 -42t35 -10h268q26 0 34.5 10.5t8.5 41.5v272q0 64 -9 100h93v-526zM201 622h64
v-92h-64v92zM347 622h64v-92h-64v92z" />
    <glyph glyph-name="Ydieresis" unicode="&#x178;" 
d="M502 593q6 10 12 25t8 22h88q-24 -24 -40 -45t-46 -65l-176 -264v-166q0 -64 9 -100h-120q9 36 9 100v165l-141 203l-59 84t-63 88h145q7 -30 14.5 -46.5t34.5 -55.5l148 -214zM192 769h64v-92h-64v92zM338 769h64v-92h-64v92z" />
    <glyph glyph-name="fraction" unicode="&#x2044;" horiz-adv-x="167" 
d="M334 640l-438 -640h-63l440 640h61z" />
    <glyph glyph-name="Euro" unicode="&#x20ac;" horiz-adv-x="667" 
d="M333 156q68 0 116 48t48 116t-48 116t-116 48t-116 -48t-48 -116t48 -116t116 -48zM587 524l-56 -55q24 -32 37 -69t13 -80q0 -42 -13 -79.5t-37 -68.5l56 -56l-51 -51l-57 56q-63 -49 -146 -49q-82 0 -147 49l-56 -56l-51 51l56 57q-50 64 -50 147q0 43 13 80t37 69
l-56 55l51 51l56 -56q31 23 68.5 36t78.5 13q81 0 145 -47l58 54z" />
    <glyph glyph-name="guilsinglleft" unicode="&#x2039;" horiz-adv-x="296" 
d="M228 55h-63l-97 180l97 180h63l-97 -180z" />
    <glyph glyph-name="guilsinglright" unicode="&#x203a;" horiz-adv-x="296" 
d="M68 415h63l97 -180l-97 -180h-63l97 180z" />
    <glyph glyph-name="uniFB01" unicode="&#xfb01;" horiz-adv-x="574" 
d="M387 424h-224v-316q0 -33 1.5 -51.5t7.5 -56.5h-102q3 22 6 53t3 55v316h-76v46h76v48q0 69 26.5 95.5t95.5 26.5h201l8 -55q-36 9 -100 9h-104q-26 0 -34.5 -10.5t-8.5 -41.5v-72h224v-46zM519 100q0 -64 9 -100h-102q9 36 9 100v270q0 64 -9 100h93v-370zM435 596h84
v-68h-84v68z" />
    <glyph glyph-name="uniFB02" unicode="&#xfb02;" horiz-adv-x="574" 
d="M387 424h-224v-316q0 -33 1.5 -51.5t7.5 -56.5h-102q3 22 6 53t3 55v316h-76v46h76v48q0 69 26.5 95.5t95.5 26.5h201l8 -55q-36 9 -100 9h-104q-26 0 -34.5 -10.5t-8.5 -41.5v-72h224v-46zM519 640v-540q0 -64 9 -100h-102q9 36 9 100v440q0 64 -9 100h93z" />
    <glyph glyph-name="daggerdbl" unicode="&#x2021;" horiz-adv-x="611" 
d="M264 386h-170v62h170v192h84v-192h170v-62h-170v-280h170v-62h-170v-222h-84v222h-170v62h170v280z" />
    <glyph glyph-name="periodcentered" unicode="&#xb7;" horiz-adv-x="333" 
d="M166 289q23 0 38.5 -15.5t15.5 -38.5t-15.5 -38.5t-38.5 -15.5t-38.5 15.5t-15.5 38.5t15.5 38.5t38.5 15.5z" />
    <glyph glyph-name="quotesinglbase" unicode="&#x201a;" horiz-adv-x="222" 
d="M60 86h102v-86l-48 -52h-46l32 52h-40v86z" />
    <glyph glyph-name="quotedblbase" unicode="&#x201e;" horiz-adv-x="370" 
d="M162 86v-86l-48 -52h-46l32 52h-40v86h102zM310 86v-86l-48 -52h-46l32 52h-40v86h102z" />
    <glyph glyph-name="perthousand" unicode="&#x2030;" horiz-adv-x="1111" 
d="M96 374q0 -21 20 -21h113q11 0 15.5 4.5t4.5 16.5v203q0 21 -20 21h-113q-11 0 -15.5 -4.5t-4.5 -16.5v-203zM20 571q0 40 15.5 54.5t59.5 14.5h155q44 0 59.5 -14.5t15.5 -54.5v-192q0 -40 -15 -54t-60 -14h-155q-43 0 -59 14t-16 54v192zM507 63q0 -21 20 -21h113
q11 0 15.5 4.5t4.5 16.5v203q0 21 -20 21h-113q-11 0 -15.5 -4.5t-4.5 -16.5v-203zM431 260q0 40 15.5 54.5t59.5 14.5h155q44 0 59.5 -14.5t15.5 -54.5v-192q0 -40 -15 -54t-60 -14h-155q-43 0 -59 14t-16 54v192zM862 63q0 -21 20 -21h113q11 0 15.5 4.5t4.5 16.5v203
q0 21 -20 21h-113q-11 0 -15.5 -4.5t-4.5 -16.5v-203zM786 260q0 40 15.5 54.5t59.5 14.5h155q44 0 59.5 -14.5t15.5 -54.5v-192q0 -40 -15 -54t-60 -14h-155q-43 0 -59 14t-16 54v192zM150 0l394 639h58l-394 -639h-58z" />
    <glyph glyph-name="Acircumflex" unicode="&#xc2;" horiz-adv-x="685" 
d="M568 0q-2 25 -9.5 45.5t-25.5 58.5l-44 92h-342l-52 -108q-18 -38 -23 -54.5t-5 -33.5h-84q25 29 45 69l255 531q-7 13 -13 20t-20 20h129l257 -525q20 -42 35 -69t31 -46h-134zM316 552l-146 -304h295zM370 807l113 -140h-64l-82 103l-82 -103h-64l112 140h67z" />
    <glyph glyph-name="Ecircumflex" unicode="&#xca;" horiz-adv-x="556" 
d="M536 640l5 -59q-7 1 -39 4t-86 3h-261v-242h237q53 0 76 1.5t55 5.5v-66q-7 1 -43 4t-88 3h-237v-242h261q53 0 78 1.5t47 5.5l-5 -59h-492q9 36 9 100v440q0 64 -9 100h492zM328 807l113 -140h-64l-82 103l-82 -103h-64l112 140h67z" />
    <glyph glyph-name="Aacute" unicode="&#xc1;" horiz-adv-x="685" 
d="M568 0q-2 25 -9.5 45.5t-25.5 58.5l-44 92h-342l-52 -108q-18 -38 -23 -54.5t-5 -33.5h-84q25 29 45 69l255 531q-7 13 -13 20t-20 20h129l257 -525q20 -42 35 -69t31 -46h-134zM316 552l-146 -304h295zM325 667h-50l110 140h78z" />
    <glyph glyph-name="Edieresis" unicode="&#xcb;" horiz-adv-x="556" 
d="M536 640l5 -59q-7 1 -39 4t-86 3h-261v-242h237q53 0 76 1.5t55 5.5v-66q-7 1 -43 4t-88 3h-237v-242h261q53 0 78 1.5t47 5.5l-5 -59h-492q9 36 9 100v440q0 64 -9 100h492zM190 769h64v-92h-64v92zM336 769h64v-92h-64v92z" />
    <glyph glyph-name="Egrave" unicode="&#xc8;" horiz-adv-x="556" 
d="M536 640l5 -59q-7 1 -39 4t-86 3h-261v-242h237q53 0 76 1.5t55 5.5v-66q-7 1 -43 4t-88 3h-237v-242h261q53 0 78 1.5t47 5.5l-5 -59h-492q9 36 9 100v440q0 64 -9 100h492zM169 807h76l112 -140h-52z" />
    <glyph glyph-name="Iacute" unicode="&#xcd;" horiz-adv-x="241" 
d="M172 100q0 -64 9 -100h-120q9 36 9 100v440q0 64 -9 100h120q-9 -36 -9 -100v-440zM109 667h-50l110 140h78z" />
    <glyph glyph-name="Icircumflex" unicode="&#xce;" horiz-adv-x="241" 
d="M172 100q0 -64 9 -100h-120q9 36 9 100v440q0 64 -9 100h120q-9 -36 -9 -100v-440zM154 807l113 -140h-64l-82 103l-82 -103h-64l112 140h67z" />
    <glyph glyph-name="Idieresis" unicode="&#xcf;" horiz-adv-x="241" 
d="M172 100q0 -64 9 -100h-120q9 36 9 100v440q0 64 -9 100h120q-9 -36 -9 -100v-440zM16 769h64v-92h-64v92zM162 769h64v-92h-64v92z" />
    <glyph glyph-name="Igrave" unicode="&#xcc;" horiz-adv-x="241" 
d="M172 100q0 -64 9 -100h-120q9 36 9 100v440q0 64 -9 100h120q-9 -36 -9 -100v-440zM-5 807h76l112 -140h-52z" />
    <glyph glyph-name="Oacute" unicode="&#xd3;" horiz-adv-x="667" 
d="M492 640q73 0 103 -31.5t30 -90.5v-396q0 -59 -30 -90.5t-103 -31.5h-317q-73 0 -103 31.5t-30 90.5v396q0 59 30 90.5t103 31.5h317zM523 536q0 32 -8 42t-35 10h-293q-26 0 -34.5 -10.5t-8.5 -41.5v-432q0 -32 8 -42t35 -10h293q26 0 34.5 10.5t8.5 41.5v432zM322 667
h-50l110 140h78z" />
    <glyph glyph-name="Ocircumflex" unicode="&#xd4;" horiz-adv-x="667" 
d="M492 640q73 0 103 -31.5t30 -90.5v-396q0 -59 -30 -90.5t-103 -31.5h-317q-73 0 -103 31.5t-30 90.5v396q0 59 30 90.5t103 31.5h317zM523 536q0 32 -8 42t-35 10h-293q-26 0 -34.5 -10.5t-8.5 -41.5v-432q0 -32 8 -42t35 -10h293q26 0 34.5 10.5t8.5 41.5v432zM367 807
l113 -140h-64l-82 103l-82 -103h-64l112 140h67z" />
    <glyph glyph-name="Ograve" unicode="&#xd2;" horiz-adv-x="667" 
d="M492 640q73 0 103 -31.5t30 -90.5v-396q0 -59 -30 -90.5t-103 -31.5h-317q-73 0 -103 31.5t-30 90.5v396q0 59 30 90.5t103 31.5h317zM523 536q0 32 -8 42t-35 10h-293q-26 0 -34.5 -10.5t-8.5 -41.5v-432q0 -32 8 -42t35 -10h293q26 0 34.5 10.5t8.5 41.5v432zM208 807
h76l112 -140h-52z" />
    <glyph glyph-name="Uacute" unicode="&#xda;" horiz-adv-x="667" 
d="M518 52q27 0 35.5 10.5t8.5 41.5v428q0 33 -1.5 51.5t-7.5 56.5h72q-6 -31 -8.5 -60.5t-2.5 -60.5v-15v-381q0 -72 -23 -97.5t-87 -25.5h-320q-75 0 -103 26t-28 97v417q0 64 -9 100h120q-9 -36 -9 -100v-436q0 -33 7 -42.5t32 -9.5h324zM322 667h-50l110 140h78z" />
    <glyph glyph-name="Ucircumflex" unicode="&#xdb;" horiz-adv-x="667" 
d="M518 52q27 0 35.5 10.5t8.5 41.5v428q0 33 -1.5 51.5t-7.5 56.5h72q-6 -31 -8.5 -60.5t-2.5 -60.5v-15v-381q0 -72 -23 -97.5t-87 -25.5h-320q-75 0 -103 26t-28 97v417q0 64 -9 100h120q-9 -36 -9 -100v-436q0 -33 7 -42.5t32 -9.5h324zM367 807l113 -140h-64l-82 103
l-82 -103h-64l112 140h67z" />
    <glyph glyph-name="Ugrave" unicode="&#xd9;" horiz-adv-x="667" 
d="M518 52q27 0 35.5 10.5t8.5 41.5v428q0 33 -1.5 51.5t-7.5 56.5h72q-6 -31 -8.5 -60.5t-2.5 -60.5v-15v-381q0 -72 -23 -97.5t-87 -25.5h-320q-75 0 -103 26t-28 97v417q0 64 -9 100h120q-9 -36 -9 -100v-436q0 -33 7 -42.5t32 -9.5h324zM208 807h76l112 -140h-52z" />
    <glyph glyph-name="dotlessi" unicode="&#x131;" horiz-adv-x="204" 
d="M144 108q0 -33 1.5 -51.5t7.5 -56.5h-102q3 22 6 53t3 55v262q0 64 -9 100h93v-362z" />
    <glyph glyph-name="circumflex" unicode="&#x2c6;" horiz-adv-x="204" 
d="M135 660l113 -140h-64l-82 103l-82 -103h-64l112 140h67z" />
    <glyph glyph-name="tilde" unicode="&#x2dc;" horiz-adv-x="204" 
d="M-54 532l1 9q4 39 30 64t56 25q22 0 40 -7t35.5 -15.5t35 -16t30.5 -7.5q22 0 31 13t15 37h38q-4 -41 -25 -68.5t-57 -27.5q-16 0 -36 6.5t-44 16.5t-39 15.5t-26 5.5q-21 0 -29.5 -11t-18.5 -39h-37z" />
    <glyph glyph-name="macron" unicode="&#xaf;" horiz-adv-x="204" 
d="M249 558h-294v46h294v-46z" />
    <glyph glyph-name="breve" unicode="&#x2d8;" horiz-adv-x="204" 
d="M246 653q-8 -49 -36.5 -88t-113.5 -39q-70 0 -100 38.5t-38 88.5h40q3 -31 27 -56t77 -25q56 0 76 21.5t30 59.5h38z" />
    <glyph glyph-name="dotaccent" unicode="&#x2d9;" horiz-adv-x="204" 
d="M70 530v92h64v-92h-64z" />
    <glyph glyph-name="ring" unicode="&#x2da;" horiz-adv-x="204" 
d="M102 730q43 0 73.5 -30.5t30.5 -73.5t-30.5 -73.5t-73.5 -30.5t-73.5 30.5t-30.5 73.5t30.5 73.5t73.5 30.5zM102 684q-25 0 -41.5 -16.5t-16.5 -41.5t16.5 -41.5t41.5 -16.5t41.5 16.5t16.5 41.5t-16.5 41.5t-41.5 16.5z" />
    <glyph glyph-name="cedilla" unicode="&#xb8;" horiz-adv-x="204" 
d="M135 0l-47 -59q30 6 37 6q27 0 52.5 -17.5t25.5 -52.5q0 -39 -30.5 -62t-74.5 -23q-35 0 -52 4t-46 16l16 30q16 -6 32 -11t31 -5q30 0 49 13t19 34q0 40 -52 40q-10 0 -17 -1t-27 -7l-15 13l61 82h38z" />
    <glyph glyph-name="hungarumlaut" unicode="&#x2dd;" horiz-adv-x="204" 
d="M197 738l-103 -138h-50l76 138h77zM170 600l81 138h78l-108 -138h-51z" />
    <glyph glyph-name="ogonek" unicode="&#x2db;" horiz-adv-x="204" 
d="M255 10q-70 -27 -110.5 -54t-40.5 -75q0 -45 52 -45q24 0 49.5 11t58.5 29l14 -30q-39 -25 -74.5 -40.5t-67.5 -15.5q-43 0 -71.5 21t-28.5 63q0 64 61.5 93.5t157.5 51.5v-9z" />
    <glyph glyph-name="caron" unicode="&#x2c7;" horiz-adv-x="204" 
d="M248 660l-113 -140h-67l-112 140h64l82 -103l82 103h64z" />
    <glyph glyph-name="glyph211" horiz-adv-x="574" 
d="M162 52h285q53 0 78 1.5t47 5.5l-6 -59h-515q9 36 9 100v154l-90 -40v52l90 40v234q0 64 -9 100h120q-9 -36 -9 -100v-189l236 105v-52l-236 -105v-247z" />
    <glyph glyph-name="glyph212" horiz-adv-x="204" 
d="M-22 253v46l82 42v199q0 64 -9 100h93v-256l82 42v-47l-82 -41v-238q0 -64 9 -100h-102q9 36 9 100v195z" />
    <glyph glyph-name="glyph213" horiz-adv-x="630" 
d="M568 640l8 -59q-7 1 -39 4t-86 3h-266q-26 0 -34.5 -10.5t-8.5 -41.5v-107q0 -32 8 -42t35 -10h264q80 0 110.5 -25.5t30.5 -98.5v-129q0 -73 -30.5 -98.5t-110.5 -25.5h-396l-8 59q7 -1 39 -4t86 -3h275q26 0 34.5 10.5t8.5 41.5v125q0 32 -8 42t-35 10h-264
q-80 0 -110.5 25.5t-30.5 98.5v111q0 73 30.5 98.5t110.5 25.5h387zM461 807l-113 -140h-67l-112 140h64l82 -103l82 103h64z" />
    <glyph glyph-name="glyph214" horiz-adv-x="556" 
d="M403 288q69 0 95.5 -25.5t26.5 -96.5v-86q0 -40 -26 -60t-87 -20h-374l-7 55q36 -9 100 -9h275q26 0 34.5 10.5t8.5 41.5v56q0 32 -8 42t-35 10h-254q-69 0 -95.5 25.5t-26.5 96.5v20q0 69 26.5 95.5t95.5 26.5h364l9 -55q-36 9 -100 9h-268q-26 0 -34.5 -10.5
t-8.5 -41.5v-32q0 -32 8 -42t35 -10h246zM424 660l-113 -140h-67l-112 140h64l82 -103l82 103h64z" />
    <glyph glyph-name="glyph215" 
d="M171 52h277q53 0 78 1.5t47 5.5l-8 -59h-548l423 588h-260q-53 0 -78 -1.5t-47 -5.5l8 59h532zM443 807l-113 -140h-67l-112 140h64l82 -103l82 103h64z" />
    <glyph glyph-name="glyph216" horiz-adv-x="556" 
d="M160 46h280q64 0 101 9l-5 -55h-521l380 424h-267q-64 0 -100 -9l7 55h503zM424 660l-113 -140h-67l-112 140h64l82 -103l82 103h64z" />
    <glyph glyph-name="glyph217" horiz-adv-x="222" 
d="M73 240h76v-240h-76v240zM73 640h76v-240h-76v240z" />
    <glyph glyph-name="glyph218" horiz-adv-x="667" 
d="M348 300h-193v-248h325q26 0 34.5 10.5t8.5 41.5v432q0 32 -8 42t-35 10h-325v-236h193v-52zM-32 352h85v188q0 64 -9 100h440q80 0 110.5 -25.5t30.5 -98.5v-392q0 -73 -30.5 -98.5t-110.5 -25.5h-440q9 36 9 100v200h-85v52z" />
    <glyph glyph-name="glyph219" 
d="M160 332q-26 0 -34.5 -10.5t-8.5 -41.5v-182q0 -32 8 -42t35 -10h273q26 0 34.5 10.5t8.5 41.5v182q0 32 -8 42t-35 10h-273zM244 456l-42 30l91 58l-138 60l59 36l136 -60l95 60l44 -30l-85 -54l113 -50q29 -13 36 -23.5t7 -28.5v-332q0 -69 -26.5 -95.5t-95.5 -26.5
h-283q-69 0 -95.5 25.5t-26.5 96.5v134q0 69 26.5 95.5t95.5 26.5h283q14 0 23.5 -2l14.5 -3v57q0 21 -9 31t-33 21l-88 38z" />
    <glyph glyph-name="glyph220" 
d="M502 593q6 10 12 25t8 22h88q-24 -24 -40 -45t-46 -65l-176 -264v-166q0 -64 9 -100h-120q9 36 9 100v165l-141 203l-59 84t-63 88h145q7 -30 14.5 -46.5t34.5 -55.5l148 -214zM285 667h-50l110 140h78z" />
    <glyph glyph-name="glyph221" horiz-adv-x="611" 
d="M566 -56q0 -69 -26.5 -95.5t-95.5 -26.5h-387l-8 55q36 -9 100 -9h290q26 0 34.5 10.5t8.5 41.5v95q-14 -15 -43 -15h-273q-69 0 -95.5 25.5t-26.5 96.5v248q0 64 -9 100h93v-372q0 -32 8 -42t35 -10h268q26 0 34.5 10.5t8.5 41.5v272q0 64 -9 100h93v-526zM294 520h-50
l110 140h78z" />
    <glyph glyph-name="glyph222" horiz-adv-x="648" 
d="M53 540q0 64 -9 100h120q-9 -36 -9 -100v-20h337q80 0 110.5 -25.5t30.5 -98.5v-152q0 -73 -30.5 -98.5t-110.5 -25.5h-337v-20q0 -64 9 -100h-120q9 36 9 100v440zM155 172h333q26 0 34.5 10.5t8.5 41.5v192q0 32 -8 42t-35 10h-333v-296z" />
    <glyph glyph-name="glyph223" 
d="M128 98q0 -32 8 -42t35 -10h262q26 0 34.5 10.5t8.5 41.5v274q0 32 -8 42t-35 10h-262q-26 0 -34.5 -10.5t-8.5 -41.5v-274zM44 540q0 64 -9 100h93v-211q7 41 62 41h245q71 0 98 -26t27 -96v-226q0 -70 -26 -96t-93 -26h-246q-26 0 -43 7.5t-22 24.5l-2 -110
q0 -64 9 -100h-102q9 36 9 100v618z" />
    <glyph glyph-name="glyph224" horiz-adv-x="600" 
d="M65 197v76h470v-76h-470z" />
    <glyph glyph-name="glyph225" horiz-adv-x="600" 
d="M65 416l55 54l180 -181l180 181l55 -54l-181 -181l181 -181l-55 -54l-180 181l-180 -181l-55 54l181 181z" />
    <glyph glyph-name="glyph226" horiz-adv-x="204" 
d="M142 640v-300q0 -19 2.5 -41t7.5 -43h-88q6 22 8 43t2 41v238h-43v28l78 34h33z" />
    <glyph glyph-name="glyph227" horiz-adv-x="421" 
d="M34 256v157q0 22 13 31.5t44 17.5l234 57q13 3 13 26v28q0 19 -5 25t-23 6h-194l-81 -4l5 40h285q45 0 63 -15.5t18 -57.5v-29q0 -37 -8.5 -50t-39.5 -21l-234 -59q-12 -3 -17 -6t-5 -15v-95h219l82 4l-5 -40h-364z" />
    <glyph glyph-name="glyph228" horiz-adv-x="400" 
d="M23 296l81 -4h189q16 0 22 6.5t6 24.5v78q0 19 -5 25t-23 6h-89q-35 0 -51 -1t-30 -3v52q11 -4 32.5 -5t48.5 -1h89q17 0 22.5 6.5t5.5 25.5v67q0 19 -5 25t-23 6h-188l-81 -4l5 40h277q45 0 64 -16t19 -57v-64q0 -33 -16 -39t-41 -9q37 -1 47 -15.5t10 -52.5v-58
q0 -41 -19 -57t-64 -16h-278z" />
    <glyph glyph-name="glyph229" horiz-adv-x="1000" 
d="M649 640l-438 -640h-67l440 640h65zM205 640v-300q0 -19 2.5 -41t7.5 -43h-88q6 22 8 43t2 41v238h-43v28l78 34h33zM544 0v157q0 22 13 31.5t44 17.5l234 57q13 3 13 26v28q0 19 -5 25t-23 6h-194l-81 -4l5 40h285q45 0 63 -15.5t18 -57.5v-29q0 -37 -8.5 -50t-39.5 -21
l-234 -59q-12 -3 -17 -6t-5 -15v-95h219l82 4l-5 -40h-364z" />
    <glyph glyph-name="glyph230" horiz-adv-x="1000" 
d="M774 346l-254 -181l254 -2v183zM699 640l-438 -640h-67l440 640h65zM470 168l296 216h70v-221h61v-46h-61v-52q0 -36 10 -65h-82q10 29 10 65v52h-304v51zM255 640v-300q0 -19 2.5 -41t7.5 -43h-88q6 22 8 43t2 41v238h-43v28l78 34h33z" />
    <glyph glyph-name="glyph231" horiz-adv-x="1000" 
d="M864 346l-254 -181l254 -2v183zM789 640l-438 -640h-67l440 640h65zM560 169l296 215h70v-221h61v-46h-61v-52q0 -36 10 -65h-82q10 29 10 65v52h-304v52zM23 296l81 -4h189q16 0 22 6.5t6 24.5v78q0 19 -5 25t-23 6h-89q-35 0 -51 -1t-30 -3v52q11 -4 32.5 -5t48.5 -1
h89q17 0 22.5 6.5t5.5 25.5v67q0 19 -5 25t-23 6h-188l-81 -4l5 40h277q45 0 64 -16t19 -57v-64q0 -33 -16 -39t-41 -9q37 -1 47 -15.5t10 -52.5v-58q0 -41 -19 -57t-64 -16h-278z" />
  </font>
</defs>
</svg>
